M48
;GenerationSoftware,Autodesk,EAGLE,9.4.2*%
;CreationDate,2019-10-10T12:32:28Z*%
FMAT,2
ICI,OFF
METRIC,TZ,000.000
T10C0.300
T9C0.800
T8C0.813
T7C0.900
T6C1.000
T5C1.020
T4C1.300
T3C1.676
T2C1.700
T1C3.000
%
G90
M71
T1
X3000Y37000
X3000Y10000
X12360Y74910
X22990Y74910
X87000Y10000
X87000Y37000
X3000Y77000
X87000Y77000
T2
X78250Y66400
X73250Y66400
X52000Y66400
X47000Y66400
X65000Y66400
X60000Y66400
X38750Y66400
X33750Y66400
T3
X56150Y57540
X33850Y52460
X33850Y57540
X56150Y52460
T4
X55930Y3300
X9830Y10960
X30130Y3260
X30130Y13460
X30130Y23660
X9830Y23660
X9830Y16060
X55930Y16000
X55930Y10900
X35630Y23700
X35630Y13500
X35630Y3300
T5
X13860Y70590
X10860Y70590
X10860Y67590
X13860Y67590
X21490Y70590
X21490Y67590
X24490Y67590
X24490Y70590
T6
X68000Y71385
X81250Y71385
X70250Y71385
X57000Y71385
X55000Y71385
X44000Y71385
X41750Y71385
X30750Y71385
T7
X56480Y7520
X61812Y14484
X81210Y52030
X10860Y26890
X76460Y62110
X76460Y55610
X81210Y55610
X81210Y62110
X76460Y52030
X76460Y45530
X81210Y45530
T8
X73058Y30600
X69502Y30600
X73058Y22320
X69502Y22320
X68918Y15120
X65362Y15120
X61402Y38880
X61222Y22320
X73238Y38880
X69682Y38880
X64778Y30600
X61222Y30600
X64778Y22320
X64958Y38880
T9
X75960Y57860
X75960Y59860
X75960Y49780
X75960Y47780
T10
X55480Y40840
X54580Y40840
X54580Y41740
X55480Y41740
X56380Y41740
X57280Y41740
X58180Y41740
X58180Y42640
X57280Y42640
X56380Y42640
X55480Y42640
X54580Y42640
X81812Y22056
X64960Y2400
X64960Y4960
X64960Y7680
X64960Y10080
X80732Y22056
X79652Y22056
X86688Y25280
X78572Y20976
X79652Y20976
X80732Y20976
X81812Y20976
X81812Y19896
X80732Y19896
X79652Y19896
X78572Y19896
X78572Y18816
X79652Y18816
X80912Y18816
X81992Y18816
X64120Y57760
X61720Y43840
X65400Y51200
X60420Y47940
X62628Y42432
X78760Y43280
X78880Y34844
X77880Y44480
X78880Y33584
X63640Y50080
X71640Y57920
X78572Y22056
X72800Y50840
X71080Y50080
X69880Y43820
X58180Y40840
X30740Y40140
X29840Y40140
X38500Y39960
X88488Y25280
X82220Y24800
X66912Y42840
X72936Y42816
X81320Y24800
X80420Y24800
X79520Y24800
X79520Y25700
X80420Y25700
X81320Y25700
X82220Y25700
X87588Y25280
X85788Y25280
X85788Y26180
X86688Y26180
X87588Y26180
X88488Y26180
X88488Y27080
X87588Y27080
X86688Y27080
X85788Y27080
X79520Y26600
X80420Y26600
X81320Y26600
X79520Y27500
X80420Y27500
X81320Y27500
X31640Y40140
X32540Y40140
X33440Y40140
X29840Y41040
X29840Y41940
X30740Y41940
X30740Y41040
X31640Y41040
X31640Y41940
X31640Y42840
X30740Y42840
X29840Y42840
X38500Y43560
X29840Y43740
X30740Y43740
X31640Y43740
X32540Y43740
X33440Y43740
X37600Y39960
X36700Y39960
X35800Y39960
X38500Y40860
X37600Y40860
X36700Y40860
X35800Y40860
X35800Y41760
X35800Y42660
X36700Y42660
X36700Y41760
X37600Y41760
X37600Y42660
X38500Y42660
X38500Y41760
X37600Y43560
X36700Y43560
X57280Y40840
X56380Y40840
M30