G04 EAGLE Gerber RS-274X export*
G75*
%MOMM*%
%FSLAX34Y34*%
%LPD*%
%INstc*%
%IPPOS*%
%AMOC8*
5,1,8,0,0,1.08239X$1,22.5*%
G01*
%ADD10C,3.203200*%
%ADD11R,1.733200X1.733200*%
%ADD12C,1.733200*%
%ADD13C,2.743200*%
%ADD14R,1.703200X2.203200*%
%ADD15R,12.403200X9.953200*%
%ADD16R,1.803200X3.703200*%
%ADD17R,0.903200X1.103200*%
%ADD18R,1.283200X1.253200*%
%ADD19R,1.503200X1.803200*%
%ADD20R,1.103200X0.903200*%
%ADD21R,1.253200X1.283200*%
%ADD22R,2.003200X1.903200*%
%ADD23R,2.603200X2.603200*%
%ADD24R,0.733200X1.333200*%
%ADD25R,4.553200X3.903200*%
%ADD26R,0.733200X1.533200*%
%ADD27C,2.753200*%
%ADD28C,1.711200*%
%ADD29R,2.203200X2.203200*%
%ADD30C,2.203200*%
%ADD31R,9.953200X12.403200*%
%ADD32R,3.703200X1.803200*%
%ADD33R,0.762000X1.473200*%
%ADD34R,0.803200X2.403200*%
%ADD35R,2.003200X2.203200*%
%ADD36R,2.203200X2.003200*%
%ADD37P,1.951982X8X22.500000*%
%ADD38C,1.803400*%
%ADD39C,1.511200*%
%ADD40C,1.611200*%
%ADD41R,1.303200X1.203200*%
%ADD42C,0.909600*%
%ADD43C,1.553200*%


D10*
X30000Y100000D03*
X870000Y100000D03*
X870000Y370000D03*
X30000Y370000D03*
X30000Y770000D03*
X870000Y770000D03*
D11*
X108600Y705900D03*
D12*
X108600Y675900D03*
X138600Y705900D03*
X138600Y675900D03*
D10*
X123600Y749100D03*
D13*
X325800Y524600D02*
X351200Y524600D01*
X351200Y575400D02*
X325800Y575400D01*
X548800Y575400D02*
X574200Y575400D01*
X574200Y524600D02*
X548800Y524600D01*
D14*
X604300Y89800D03*
X634300Y89800D03*
X604300Y66400D03*
X634300Y66400D03*
X604300Y43200D03*
X634300Y43200D03*
X604300Y20000D03*
X634300Y20000D03*
D15*
X458700Y442400D03*
D16*
X484100Y339600D03*
X433300Y339600D03*
D17*
X559200Y465200D03*
X546200Y465200D03*
D18*
X612700Y587750D03*
X612700Y570250D03*
D19*
X615000Y523700D03*
X635000Y523700D03*
D20*
X588400Y471400D03*
X588400Y484400D03*
D17*
X620800Y487500D03*
X633800Y487500D03*
X653400Y486600D03*
X666400Y486600D03*
X654400Y500500D03*
X667400Y500500D03*
D21*
X669850Y520800D03*
X652350Y520800D03*
D18*
X618100Y459450D03*
X618100Y441950D03*
D17*
X361900Y439600D03*
X348900Y439600D03*
D22*
X339300Y418800D03*
X380300Y418800D03*
D23*
X389900Y615800D03*
X433900Y615800D03*
X872600Y654000D03*
X872600Y698000D03*
D24*
X384850Y388700D03*
X372150Y388700D03*
X359450Y388700D03*
X346750Y388700D03*
D25*
X365800Y357300D03*
D26*
X346750Y333900D03*
X359450Y333900D03*
X372150Y333900D03*
X384850Y333900D03*
D24*
X570250Y397900D03*
X557550Y397900D03*
X544850Y397900D03*
X532150Y397900D03*
D25*
X551200Y366500D03*
D26*
X532150Y343100D03*
X544850Y343100D03*
X557550Y343100D03*
X570250Y343100D03*
D24*
X327250Y388700D03*
X314550Y388700D03*
X301850Y388700D03*
X289150Y388700D03*
D25*
X308200Y357300D03*
D26*
X289150Y333900D03*
X301850Y333900D03*
X314550Y333900D03*
X327250Y333900D03*
D27*
X782500Y664000D03*
X732500Y664000D03*
D28*
X812500Y713850D03*
X702500Y713850D03*
D27*
X650000Y664000D03*
X600000Y664000D03*
D28*
X680000Y713850D03*
X570000Y713850D03*
D27*
X520000Y664000D03*
X470000Y664000D03*
D28*
X550000Y713850D03*
X440000Y713850D03*
D27*
X387500Y664000D03*
X337500Y664000D03*
D28*
X417500Y713850D03*
X307500Y713850D03*
D17*
X349100Y451300D03*
X362100Y451300D03*
X790100Y308800D03*
X803100Y308800D03*
D11*
X214900Y705900D03*
D12*
X214900Y675900D03*
X244900Y705900D03*
X244900Y675900D03*
D10*
X229900Y749100D03*
D29*
X559300Y160000D03*
D30*
X559300Y109000D03*
X356300Y237000D03*
X356300Y135000D03*
X356300Y33000D03*
X559300Y33000D03*
D29*
X98300Y109600D03*
D30*
X98300Y160600D03*
X301300Y32600D03*
X301300Y134600D03*
X301300Y236600D03*
X98300Y236600D03*
D31*
X790300Y66600D03*
D32*
X687500Y41200D03*
X687500Y92000D03*
D24*
X882490Y238200D03*
X869790Y238200D03*
X857090Y238200D03*
X844390Y238200D03*
D25*
X863440Y206800D03*
D26*
X844390Y183400D03*
X857090Y183400D03*
X869790Y183400D03*
X882490Y183400D03*
D17*
X851140Y310840D03*
X864140Y310840D03*
X863840Y297580D03*
X850840Y297580D03*
D22*
X534200Y445400D03*
X575200Y445400D03*
X834900Y273560D03*
X875900Y273560D03*
D17*
X634200Y500300D03*
X621200Y500300D03*
X796700Y294200D03*
X783700Y294200D03*
D22*
X769700Y273100D03*
X810700Y273100D03*
D24*
X826730Y234580D03*
X814030Y234580D03*
X801330Y234580D03*
X788630Y234580D03*
D25*
X807680Y203180D03*
D26*
X788630Y179780D03*
X801330Y179780D03*
X814030Y179780D03*
X826730Y179780D03*
D17*
X719800Y485300D03*
X732800Y485300D03*
X727200Y502100D03*
X740200Y502100D03*
D21*
X742050Y521000D03*
X724550Y521000D03*
D17*
X689100Y487500D03*
X702100Y487500D03*
X701600Y500900D03*
X688600Y500900D03*
D18*
X689400Y587650D03*
X689400Y570150D03*
D19*
X688800Y524200D03*
X708800Y524200D03*
D18*
X698800Y461550D03*
X698800Y444050D03*
D33*
X657125Y464992D03*
X647600Y464992D03*
X638075Y464992D03*
X638075Y440608D03*
X657125Y440608D03*
X737125Y464992D03*
X727600Y464992D03*
X718075Y464992D03*
X718075Y440608D03*
X737125Y440608D03*
D34*
X716450Y553200D03*
X716450Y605200D03*
X703750Y553200D03*
X729150Y553200D03*
X741850Y553200D03*
X703750Y605200D03*
X729150Y605200D03*
X741850Y605200D03*
X641250Y549600D03*
X641250Y601600D03*
X628550Y549600D03*
X653950Y549600D03*
X666650Y549600D03*
X628550Y601600D03*
X653950Y601600D03*
X666650Y601600D03*
D14*
X26600Y292800D03*
X56600Y292800D03*
X26600Y267200D03*
X56600Y267200D03*
X26600Y241600D03*
X56600Y241600D03*
X26600Y216000D03*
X56600Y216000D03*
D35*
X546000Y278400D03*
X574000Y278400D03*
D36*
X25600Y188400D03*
X25600Y160400D03*
D37*
X649580Y388800D03*
D38*
X614020Y388800D03*
D37*
X732380Y388800D03*
D38*
X696820Y388800D03*
D37*
X647780Y306000D03*
D38*
X612220Y306000D03*
D37*
X647780Y223200D03*
D38*
X612220Y223200D03*
D37*
X730580Y306000D03*
D38*
X695020Y306000D03*
D37*
X730580Y223200D03*
D38*
X695020Y223200D03*
D37*
X689180Y151200D03*
D38*
X653620Y151200D03*
D39*
X759600Y578600D03*
X759600Y598600D03*
D40*
X764600Y621100D03*
X764600Y556100D03*
X812100Y556100D03*
X812100Y621100D03*
D39*
X759600Y477800D03*
X759600Y497800D03*
D40*
X764600Y520300D03*
X764600Y455300D03*
X812100Y455300D03*
X812100Y520300D03*
D41*
X685800Y605300D03*
X685800Y622300D03*
X610200Y605300D03*
X610200Y622300D03*
D42*
X641200Y577600D03*
X617200Y438400D03*
X654000Y512000D03*
X636400Y500800D03*
X716400Y579200D03*
X728000Y508400D03*
X710800Y500800D03*
X698800Y438200D03*
X581800Y408400D03*
X307400Y401400D03*
X298400Y401400D03*
X385000Y399600D03*
X884880Y252800D03*
X822200Y248000D03*
X669120Y428400D03*
X729360Y428160D03*
X813200Y248000D03*
X804200Y248000D03*
X795200Y248000D03*
X795200Y257000D03*
X804200Y257000D03*
X813200Y257000D03*
X822200Y257000D03*
X875880Y252800D03*
X866880Y252800D03*
X857880Y252800D03*
X857880Y261800D03*
X866880Y261800D03*
X875880Y261800D03*
X884880Y261800D03*
X884880Y270800D03*
X875880Y270800D03*
X866880Y270800D03*
X857880Y270800D03*
X795200Y266000D03*
X804200Y266000D03*
X813200Y266000D03*
X795200Y275000D03*
X804200Y275000D03*
X813200Y275000D03*
X316400Y401400D03*
X325400Y401400D03*
X334400Y401400D03*
X298400Y410400D03*
X298400Y419400D03*
X307400Y419400D03*
X307400Y410400D03*
X316400Y410400D03*
X316400Y419400D03*
X316400Y428400D03*
X307400Y428400D03*
X298400Y428400D03*
X298400Y437400D03*
X307400Y437400D03*
X316400Y437400D03*
X325400Y437400D03*
X334400Y437400D03*
X376000Y399600D03*
X367000Y399600D03*
X358000Y399600D03*
X385000Y408600D03*
X376000Y408600D03*
X367000Y408600D03*
X358000Y408600D03*
X358000Y417600D03*
X358000Y426600D03*
X367000Y426600D03*
X367000Y417600D03*
X376000Y417600D03*
X376000Y426600D03*
X385000Y426600D03*
X385000Y417600D03*
X385000Y435600D03*
X376000Y435600D03*
X367000Y435600D03*
X572800Y408400D03*
X563800Y408400D03*
X554800Y408400D03*
X545800Y408400D03*
X545800Y417400D03*
X554800Y417400D03*
X563800Y417400D03*
X572800Y417400D03*
X581800Y417400D03*
X581800Y426400D03*
X572800Y426400D03*
X563800Y426400D03*
X554800Y426400D03*
X545800Y426400D03*
X818120Y220560D03*
X649600Y24000D03*
X649600Y49600D03*
X649600Y76800D03*
X649600Y100800D03*
X807320Y220560D03*
X796520Y220560D03*
X785720Y220560D03*
X785720Y209760D03*
X796520Y209760D03*
X807320Y209760D03*
X818120Y209760D03*
X818120Y198960D03*
X807320Y198960D03*
X796520Y198960D03*
X785720Y198960D03*
X785720Y188160D03*
X796520Y188160D03*
X809120Y188160D03*
X819920Y188160D03*
D43*
X108600Y268900D03*
X564800Y75200D03*
X618120Y144840D03*
D42*
X604200Y479400D03*
X626280Y424320D03*
X787600Y432800D03*
X788800Y348440D03*
X778800Y444800D03*
X788800Y335840D03*
M02*
