G04 EAGLE Gerber RS-274X export*
G75*
%MOMM*%
%FSLAX34Y34*%
%LPD*%
%INcmp*%
%IPPOS*%
%AMOC8*
5,1,8,0,0,1.08239X$1,22.5*%
G01*
%ADD10R,1.530000X1.530000*%
%ADD11C,1.530000*%
%ADD12C,2.540000*%
%ADD13R,1.500000X2.000000*%
%ADD14R,12.200000X9.750000*%
%ADD15R,1.600000X3.500000*%
%ADD16R,0.700000X0.900000*%
%ADD17R,1.080000X1.050000*%
%ADD18R,1.300000X1.600000*%
%ADD19R,0.900000X0.700000*%
%ADD20R,1.050000X1.080000*%
%ADD21R,1.800000X1.700000*%
%ADD22R,2.400000X2.400000*%
%ADD23R,0.530000X1.130000*%
%ADD24R,4.350000X3.700000*%
%ADD25R,0.530000X1.330000*%
%ADD26C,2.550000*%
%ADD27C,1.508000*%
%ADD28R,2.000000X2.000000*%
%ADD29C,2.000000*%
%ADD30R,9.750000X12.200000*%
%ADD31R,3.500000X1.600000*%
%ADD32R,0.558800X1.270000*%
%ADD33R,0.600000X2.200000*%
%ADD34R,1.800000X2.000000*%
%ADD35R,2.000000X1.800000*%
%ADD36P,1.732040X8X22.500000*%
%ADD37C,1.600200*%
%ADD38C,1.308000*%
%ADD39C,1.408000*%
%ADD40R,1.100000X1.000000*%
%ADD41C,0.706400*%
%ADD42C,0.160000*%
%ADD43C,0.204000*%
%ADD44C,0.180000*%
%ADD45C,1.016000*%
%ADD46C,2.184400*%
%ADD47C,1.676400*%
%ADD48C,1.350000*%
%ADD49C,0.203200*%
%ADD50C,1.422400*%
%ADD51C,1.930400*%

G36*
X87149Y245612D02*
X87149Y245612D01*
X87220Y245613D01*
X87273Y245632D01*
X87328Y245641D01*
X87391Y245673D01*
X87458Y245696D01*
X87506Y245732D01*
X87552Y245756D01*
X87591Y245795D01*
X87644Y245835D01*
X90333Y248524D01*
X95502Y250665D01*
X101098Y250665D01*
X106267Y248524D01*
X108956Y245835D01*
X109013Y245793D01*
X109064Y245744D01*
X109115Y245720D01*
X109160Y245687D01*
X109227Y245665D01*
X109291Y245634D01*
X109351Y245626D01*
X109400Y245610D01*
X109456Y245610D01*
X109521Y245601D01*
X125267Y245601D01*
X125332Y245611D01*
X125398Y245612D01*
X125456Y245631D01*
X125516Y245641D01*
X125575Y245671D01*
X125637Y245692D01*
X125686Y245728D01*
X125740Y245756D01*
X125787Y245803D01*
X125840Y245842D01*
X125875Y245892D01*
X125918Y245935D01*
X125947Y245994D01*
X125985Y246048D01*
X126003Y246106D01*
X126030Y246161D01*
X126040Y246226D01*
X126059Y246289D01*
X126058Y246350D01*
X126067Y246410D01*
X126055Y246475D01*
X126054Y246541D01*
X126034Y246598D01*
X126024Y246659D01*
X125993Y246717D01*
X125971Y246779D01*
X125932Y246832D01*
X125905Y246881D01*
X125868Y246917D01*
X125833Y246965D01*
X116578Y256219D01*
X116521Y256261D01*
X116470Y256310D01*
X116420Y256334D01*
X116374Y256367D01*
X116307Y256389D01*
X116243Y256420D01*
X116183Y256428D01*
X116134Y256444D01*
X116079Y256444D01*
X116013Y256453D01*
X106124Y256453D01*
X101549Y258348D01*
X98048Y261849D01*
X96153Y266424D01*
X96153Y271376D01*
X98048Y275951D01*
X101549Y279452D01*
X106124Y281347D01*
X123976Y281347D01*
X128551Y279452D01*
X158522Y249481D01*
X158579Y249439D01*
X158630Y249390D01*
X158680Y249366D01*
X158726Y249333D01*
X158793Y249311D01*
X158857Y249280D01*
X158917Y249272D01*
X158966Y249256D01*
X159021Y249256D01*
X159087Y249247D01*
X294920Y249247D01*
X294960Y249253D01*
X295001Y249251D01*
X295096Y249275D01*
X295169Y249286D01*
X295195Y249300D01*
X295226Y249308D01*
X298502Y250665D01*
X304098Y250665D01*
X309267Y248524D01*
X311956Y245835D01*
X312013Y245793D01*
X312064Y245744D01*
X312115Y245720D01*
X312160Y245687D01*
X312227Y245665D01*
X312291Y245634D01*
X312351Y245626D01*
X312400Y245610D01*
X312456Y245610D01*
X312521Y245601D01*
X344679Y245601D01*
X344749Y245612D01*
X344820Y245613D01*
X344873Y245632D01*
X344928Y245641D01*
X344991Y245673D01*
X345058Y245696D01*
X345106Y245732D01*
X345152Y245756D01*
X345191Y245795D01*
X345244Y245835D01*
X348333Y248924D01*
X353502Y251065D01*
X359098Y251065D01*
X364267Y248924D01*
X367356Y245835D01*
X367413Y245793D01*
X367464Y245744D01*
X367515Y245720D01*
X367560Y245687D01*
X367627Y245665D01*
X367691Y245634D01*
X367751Y245626D01*
X367800Y245610D01*
X367856Y245610D01*
X367921Y245601D01*
X507200Y245601D01*
X507270Y245612D01*
X507341Y245613D01*
X507394Y245632D01*
X507449Y245641D01*
X507512Y245673D01*
X507579Y245696D01*
X507627Y245732D01*
X507673Y245756D01*
X507712Y245795D01*
X507765Y245835D01*
X512565Y250635D01*
X512604Y250688D01*
X512646Y250731D01*
X512648Y250735D01*
X512656Y250744D01*
X512680Y250794D01*
X512713Y250839D01*
X512735Y250907D01*
X512766Y250971D01*
X512774Y251030D01*
X512790Y251079D01*
X512790Y251135D01*
X512799Y251200D01*
X512799Y297304D01*
X512798Y297309D01*
X512799Y297314D01*
X512778Y297434D01*
X512760Y297553D01*
X512757Y297557D01*
X512756Y297563D01*
X512699Y297670D01*
X512644Y297777D01*
X512641Y297781D01*
X512638Y297785D01*
X512552Y297868D01*
X512465Y297954D01*
X512460Y297957D01*
X512457Y297960D01*
X512348Y298012D01*
X512239Y298067D01*
X512234Y298067D01*
X512230Y298070D01*
X512000Y298103D01*
X464987Y298103D01*
X462746Y299031D01*
X461031Y300746D01*
X460103Y302987D01*
X460103Y380623D01*
X460102Y380629D01*
X460103Y380636D01*
X460082Y380754D01*
X460064Y380872D01*
X460061Y380877D01*
X460059Y380884D01*
X460003Y380990D01*
X459948Y381096D01*
X459944Y381100D01*
X459940Y381106D01*
X459854Y381189D01*
X459769Y381273D01*
X459763Y381276D01*
X459758Y381280D01*
X459650Y381332D01*
X459543Y381385D01*
X459537Y381386D01*
X459531Y381389D01*
X459301Y381422D01*
X397809Y381201D01*
X397741Y381190D01*
X397671Y381189D01*
X397617Y381170D01*
X397561Y381161D01*
X397499Y381129D01*
X397433Y381106D01*
X397384Y381069D01*
X397337Y381045D01*
X397299Y381006D01*
X397247Y380967D01*
X395415Y379135D01*
X389665Y379135D01*
X389595Y379124D01*
X389524Y379123D01*
X389471Y379104D01*
X389416Y379096D01*
X389353Y379063D01*
X389286Y379040D01*
X389237Y379004D01*
X389201Y378985D01*
X380499Y378985D01*
X380492Y378992D01*
X380442Y379016D01*
X380396Y379049D01*
X380329Y379071D01*
X380265Y379102D01*
X380205Y379110D01*
X380156Y379126D01*
X380101Y379126D01*
X380035Y379135D01*
X376965Y379135D01*
X376895Y379124D01*
X376824Y379123D01*
X376771Y379104D01*
X376716Y379096D01*
X376653Y379063D01*
X376586Y379040D01*
X376537Y379004D01*
X376501Y378985D01*
X367799Y378985D01*
X367792Y378992D01*
X367742Y379016D01*
X367696Y379049D01*
X367629Y379071D01*
X367565Y379102D01*
X367505Y379110D01*
X367456Y379126D01*
X367401Y379126D01*
X367335Y379135D01*
X364265Y379135D01*
X364195Y379124D01*
X364124Y379123D01*
X364071Y379104D01*
X364016Y379096D01*
X363953Y379063D01*
X363886Y379040D01*
X363837Y379004D01*
X363801Y378985D01*
X355099Y378985D01*
X355092Y378992D01*
X355042Y379016D01*
X354996Y379049D01*
X354929Y379071D01*
X354865Y379102D01*
X354805Y379110D01*
X354756Y379126D01*
X354701Y379126D01*
X354635Y379135D01*
X351565Y379135D01*
X351495Y379124D01*
X351424Y379123D01*
X351371Y379104D01*
X351316Y379096D01*
X351253Y379063D01*
X351186Y379040D01*
X351137Y379004D01*
X351101Y378985D01*
X344396Y378985D01*
X344326Y378974D01*
X344255Y378973D01*
X344202Y378954D01*
X344147Y378946D01*
X344084Y378913D01*
X344017Y378890D01*
X343969Y378854D01*
X343923Y378830D01*
X343884Y378791D01*
X343831Y378751D01*
X342615Y377535D01*
X289185Y377535D01*
X287969Y378751D01*
X287911Y378793D01*
X287860Y378842D01*
X287810Y378866D01*
X287765Y378899D01*
X287697Y378921D01*
X287633Y378952D01*
X287574Y378960D01*
X287525Y378976D01*
X287469Y378976D01*
X287404Y378985D01*
X284816Y378985D01*
X282435Y381366D01*
X282435Y396034D01*
X283951Y397550D01*
X283993Y397607D01*
X284042Y397658D01*
X284066Y397708D01*
X284099Y397754D01*
X284121Y397821D01*
X284152Y397885D01*
X284160Y397945D01*
X284176Y397994D01*
X284176Y398049D01*
X284185Y398115D01*
X284185Y447806D01*
X287949Y451570D01*
X287985Y451619D01*
X288028Y451662D01*
X288058Y451721D01*
X288097Y451774D01*
X288115Y451832D01*
X288143Y451887D01*
X288155Y451957D01*
X288174Y452014D01*
X288174Y452022D01*
X288199Y452023D01*
X288257Y452043D01*
X288318Y452054D01*
X288376Y452084D01*
X288437Y452106D01*
X288491Y452146D01*
X288541Y452172D01*
X288576Y452209D01*
X288623Y452244D01*
X291344Y454965D01*
X340736Y454965D01*
X340741Y454966D01*
X340746Y454965D01*
X340866Y454986D01*
X340985Y455004D01*
X340989Y455007D01*
X340995Y455008D01*
X341102Y455065D01*
X341209Y455120D01*
X341213Y455123D01*
X341217Y455126D01*
X341300Y455212D01*
X341386Y455299D01*
X341389Y455304D01*
X341392Y455307D01*
X341444Y455416D01*
X341499Y455525D01*
X341499Y455530D01*
X341502Y455534D01*
X341535Y455764D01*
X341535Y457484D01*
X343916Y459865D01*
X354284Y459865D01*
X355035Y459114D01*
X355039Y459111D01*
X355042Y459106D01*
X355140Y459037D01*
X355239Y458966D01*
X355244Y458964D01*
X355248Y458961D01*
X355363Y458926D01*
X355479Y458889D01*
X355484Y458889D01*
X355489Y458887D01*
X355609Y458889D01*
X355731Y458890D01*
X355736Y458892D01*
X355741Y458892D01*
X355854Y458932D01*
X355970Y458970D01*
X355974Y458973D01*
X355979Y458975D01*
X356165Y459114D01*
X356916Y459865D01*
X362252Y459865D01*
X362334Y459878D01*
X362417Y459882D01*
X362458Y459898D01*
X362501Y459904D01*
X362575Y459943D01*
X362652Y459972D01*
X362689Y460001D01*
X362725Y460020D01*
X362771Y460066D01*
X362834Y460117D01*
X525146Y632801D01*
X673974Y632801D01*
X674044Y632812D01*
X674115Y632813D01*
X674168Y632832D01*
X674223Y632841D01*
X674286Y632873D01*
X674353Y632896D01*
X674401Y632932D01*
X674447Y632956D01*
X674486Y632995D01*
X674539Y633035D01*
X676933Y635429D01*
X747304Y635429D01*
X749698Y633035D01*
X749755Y632993D01*
X749806Y632944D01*
X749857Y632920D01*
X749902Y632887D01*
X749970Y632865D01*
X750033Y632834D01*
X750093Y632826D01*
X750142Y632810D01*
X750198Y632810D01*
X750263Y632801D01*
X832000Y632801D01*
X832070Y632812D01*
X832141Y632813D01*
X832194Y632832D01*
X832249Y632841D01*
X832312Y632873D01*
X832379Y632896D01*
X832427Y632932D01*
X832473Y632956D01*
X832512Y632995D01*
X832565Y633035D01*
X851765Y652235D01*
X851807Y652292D01*
X851856Y652344D01*
X851880Y652394D01*
X851913Y652439D01*
X851935Y652507D01*
X851966Y652571D01*
X851974Y652630D01*
X851990Y652679D01*
X851990Y652735D01*
X851999Y652800D01*
X851999Y675456D01*
X851998Y675461D01*
X851999Y675466D01*
X851978Y675586D01*
X851960Y675705D01*
X851957Y675709D01*
X851956Y675715D01*
X851899Y675822D01*
X851844Y675929D01*
X851841Y675933D01*
X851838Y675937D01*
X851752Y676020D01*
X851665Y676106D01*
X851660Y676109D01*
X851657Y676112D01*
X851548Y676164D01*
X851439Y676219D01*
X851434Y676219D01*
X851430Y676222D01*
X851200Y676255D01*
X799616Y676255D01*
X799575Y676249D01*
X799533Y676251D01*
X799451Y676229D01*
X799367Y676216D01*
X799330Y676196D01*
X799290Y676186D01*
X799219Y676139D01*
X799143Y676100D01*
X799114Y676071D01*
X799079Y676048D01*
X799017Y675973D01*
X798966Y675921D01*
X798953Y675894D01*
X798932Y675869D01*
X797274Y673120D01*
X797273Y673116D01*
X797270Y673113D01*
X797225Y672999D01*
X797180Y672886D01*
X797179Y672882D01*
X797178Y672878D01*
X797171Y672757D01*
X797163Y672635D01*
X797164Y672630D01*
X797163Y672626D01*
X797220Y672401D01*
X799315Y667345D01*
X799315Y660655D01*
X796755Y654475D01*
X792025Y649745D01*
X785845Y647185D01*
X779155Y647185D01*
X772975Y649745D01*
X768245Y654475D01*
X765685Y660655D01*
X765685Y667345D01*
X768245Y673525D01*
X772975Y678255D01*
X779155Y680815D01*
X780106Y680815D01*
X780147Y680821D01*
X780188Y680819D01*
X780270Y680841D01*
X780355Y680854D01*
X780392Y680874D01*
X780432Y680884D01*
X780503Y680931D01*
X780579Y680970D01*
X780608Y680999D01*
X780643Y681022D01*
X780704Y681097D01*
X780756Y681149D01*
X780769Y681176D01*
X780790Y681201D01*
X785783Y689483D01*
X785804Y689534D01*
X785837Y689589D01*
X786247Y690580D01*
X786676Y691008D01*
X786721Y691071D01*
X786726Y691077D01*
X786766Y691117D01*
X786776Y691138D01*
X786795Y691161D01*
X787108Y691680D01*
X787186Y691737D01*
X787971Y692316D01*
X788009Y692355D01*
X788062Y692394D01*
X788820Y693153D01*
X789380Y693384D01*
X789445Y693424D01*
X789548Y693480D01*
X790036Y693839D01*
X791076Y694097D01*
X791127Y694118D01*
X791190Y694134D01*
X792181Y694545D01*
X792787Y694545D01*
X792862Y694557D01*
X792979Y694568D01*
X793567Y694714D01*
X794627Y694554D01*
X794682Y694554D01*
X794747Y694545D01*
X851200Y694545D01*
X851205Y694546D01*
X851210Y694545D01*
X851330Y694566D01*
X851449Y694584D01*
X851453Y694587D01*
X851459Y694588D01*
X851566Y694645D01*
X851673Y694700D01*
X851677Y694703D01*
X851681Y694706D01*
X851764Y694792D01*
X851850Y694879D01*
X851853Y694884D01*
X851856Y694887D01*
X851908Y694996D01*
X851963Y695105D01*
X851963Y695110D01*
X851966Y695114D01*
X851999Y695344D01*
X851999Y752087D01*
X851988Y752157D01*
X851987Y752228D01*
X851968Y752281D01*
X851960Y752336D01*
X851927Y752399D01*
X851904Y752466D01*
X851868Y752514D01*
X851844Y752560D01*
X851805Y752599D01*
X851765Y752652D01*
X849866Y754551D01*
X846554Y760288D01*
X844839Y766688D01*
X844839Y773312D01*
X846554Y779712D01*
X847589Y781504D01*
X847598Y781529D01*
X847614Y781552D01*
X847633Y781612D01*
X847656Y781658D01*
X847661Y781692D01*
X847679Y781739D01*
X847680Y781767D01*
X847688Y781793D01*
X847687Y781869D01*
X847692Y781908D01*
X847688Y781932D01*
X847691Y781991D01*
X847684Y782017D01*
X847683Y782045D01*
X847654Y782127D01*
X847649Y782156D01*
X847642Y782171D01*
X847624Y782234D01*
X847609Y782257D01*
X847600Y782283D01*
X847538Y782366D01*
X847531Y782379D01*
X847523Y782386D01*
X847485Y782444D01*
X847472Y782454D01*
X847462Y782469D01*
X834165Y795765D01*
X834108Y795807D01*
X834057Y795856D01*
X834006Y795880D01*
X833961Y795913D01*
X833893Y795935D01*
X833830Y795966D01*
X833770Y795974D01*
X833721Y795990D01*
X833665Y795990D01*
X833600Y795999D01*
X276800Y795999D01*
X276730Y795988D01*
X276659Y795987D01*
X276606Y795968D01*
X276551Y795960D01*
X276488Y795927D01*
X276421Y795904D01*
X276373Y795868D01*
X276327Y795844D01*
X276288Y795805D01*
X276235Y795765D01*
X261835Y781365D01*
X261793Y781308D01*
X261744Y781257D01*
X261720Y781206D01*
X261687Y781161D01*
X261665Y781093D01*
X261634Y781030D01*
X261626Y780970D01*
X261610Y780921D01*
X261610Y780865D01*
X261601Y780800D01*
X261601Y669131D01*
X68235Y475765D01*
X68193Y475708D01*
X68144Y475657D01*
X68120Y475606D01*
X68087Y475561D01*
X68065Y475493D01*
X68034Y475430D01*
X68026Y475370D01*
X68010Y475321D01*
X68010Y475265D01*
X68001Y475200D01*
X68001Y304979D01*
X68012Y304909D01*
X68013Y304838D01*
X68032Y304785D01*
X68041Y304730D01*
X68073Y304667D01*
X68096Y304600D01*
X68132Y304551D01*
X68156Y304506D01*
X68165Y304497D01*
X68165Y297564D01*
X68171Y297524D01*
X68169Y297483D01*
X68193Y297388D01*
X68204Y297315D01*
X68211Y297302D01*
X68213Y297293D01*
X68220Y297279D01*
X68226Y297258D01*
X69047Y295276D01*
X69047Y258154D01*
X69058Y258084D01*
X69059Y258013D01*
X69078Y257960D01*
X69086Y257905D01*
X69119Y257842D01*
X69142Y257775D01*
X69178Y257727D01*
X69202Y257681D01*
X69241Y257642D01*
X69281Y257589D01*
X81035Y245835D01*
X81092Y245793D01*
X81144Y245744D01*
X81194Y245720D01*
X81239Y245687D01*
X81307Y245665D01*
X81371Y245634D01*
X81430Y245626D01*
X81479Y245610D01*
X81535Y245610D01*
X81600Y245601D01*
X87079Y245601D01*
X87149Y245612D01*
G37*
G36*
X583218Y302171D02*
X583218Y302171D01*
X583236Y302169D01*
X583418Y302190D01*
X583601Y302209D01*
X583618Y302214D01*
X583635Y302216D01*
X583810Y302273D01*
X583986Y302327D01*
X584001Y302335D01*
X584018Y302341D01*
X584178Y302431D01*
X584340Y302519D01*
X584353Y302530D01*
X584369Y302539D01*
X584508Y302659D01*
X584649Y302776D01*
X584660Y302790D01*
X584674Y302802D01*
X584786Y302947D01*
X584901Y303090D01*
X584909Y303106D01*
X584920Y303120D01*
X585002Y303285D01*
X585087Y303447D01*
X585092Y303464D01*
X585100Y303481D01*
X585147Y303659D01*
X585198Y303834D01*
X585200Y303852D01*
X585204Y303869D01*
X585231Y304200D01*
X585231Y381884D01*
X585229Y381902D01*
X585231Y381920D01*
X585210Y382102D01*
X585191Y382285D01*
X585186Y382302D01*
X585184Y382319D01*
X585127Y382494D01*
X585073Y382670D01*
X585065Y382685D01*
X585059Y382702D01*
X584969Y382862D01*
X584881Y383024D01*
X584870Y383037D01*
X584861Y383053D01*
X584741Y383192D01*
X584624Y383333D01*
X584610Y383344D01*
X584598Y383358D01*
X584453Y383470D01*
X584310Y383585D01*
X584294Y383593D01*
X584280Y383604D01*
X584115Y383686D01*
X583953Y383771D01*
X583936Y383776D01*
X583920Y383784D01*
X583741Y383831D01*
X583566Y383882D01*
X583548Y383884D01*
X583531Y383888D01*
X583200Y383915D01*
X514348Y383915D01*
X514321Y383913D01*
X514294Y383915D01*
X514120Y383893D01*
X513947Y383875D01*
X513921Y383868D01*
X513895Y383864D01*
X513729Y383809D01*
X513562Y383757D01*
X513538Y383744D01*
X513513Y383736D01*
X513361Y383649D01*
X513208Y383565D01*
X513188Y383548D01*
X513164Y383535D01*
X512911Y383320D01*
X512880Y383289D01*
X512811Y383261D01*
X512635Y383188D01*
X512594Y383166D01*
X512550Y383151D01*
X512331Y383025D01*
X512280Y382997D01*
X512272Y382991D01*
X512262Y382986D01*
X512043Y382835D01*
X511696Y382762D01*
X511676Y382755D01*
X511655Y382753D01*
X511340Y382651D01*
X511011Y382515D01*
X510745Y382515D01*
X510700Y382511D01*
X510654Y382513D01*
X510401Y382481D01*
X510345Y382475D01*
X510336Y382473D01*
X510324Y382471D01*
X510064Y382416D01*
X509715Y382481D01*
X509694Y382483D01*
X509674Y382488D01*
X509344Y382515D01*
X466200Y382515D01*
X466182Y382513D01*
X466164Y382515D01*
X465982Y382494D01*
X465799Y382475D01*
X465782Y382470D01*
X465765Y382468D01*
X465590Y382411D01*
X465414Y382357D01*
X465399Y382349D01*
X465382Y382343D01*
X465222Y382253D01*
X465060Y382165D01*
X465047Y382154D01*
X465031Y382145D01*
X464892Y382025D01*
X464751Y381908D01*
X464740Y381894D01*
X464727Y381882D01*
X464614Y381737D01*
X464499Y381594D01*
X464491Y381578D01*
X464480Y381564D01*
X464398Y381399D01*
X464313Y381237D01*
X464308Y381220D01*
X464300Y381204D01*
X464253Y381025D01*
X464202Y380850D01*
X464200Y380832D01*
X464196Y380815D01*
X464169Y380484D01*
X464169Y304200D01*
X464171Y304182D01*
X464169Y304164D01*
X464190Y303982D01*
X464209Y303799D01*
X464214Y303782D01*
X464216Y303765D01*
X464273Y303590D01*
X464327Y303414D01*
X464335Y303399D01*
X464341Y303382D01*
X464431Y303222D01*
X464519Y303060D01*
X464530Y303047D01*
X464539Y303031D01*
X464659Y302892D01*
X464776Y302751D01*
X464790Y302740D01*
X464802Y302727D01*
X464947Y302614D01*
X465090Y302499D01*
X465106Y302491D01*
X465120Y302480D01*
X465285Y302398D01*
X465447Y302313D01*
X465464Y302308D01*
X465481Y302300D01*
X465659Y302253D01*
X465834Y302202D01*
X465852Y302200D01*
X465869Y302196D01*
X466200Y302169D01*
X583200Y302169D01*
X583218Y302171D01*
G37*
G36*
X723205Y10402D02*
X723205Y10402D01*
X723210Y10401D01*
X723330Y10422D01*
X723449Y10441D01*
X723453Y10443D01*
X723459Y10444D01*
X723566Y10501D01*
X723673Y10556D01*
X723677Y10559D01*
X723681Y10562D01*
X723764Y10648D01*
X723850Y10735D01*
X723853Y10740D01*
X723856Y10744D01*
X723908Y10852D01*
X723963Y10961D01*
X723963Y10966D01*
X723966Y10971D01*
X723999Y11200D01*
X723999Y106094D01*
X723989Y106159D01*
X723988Y106225D01*
X723969Y106283D01*
X723960Y106343D01*
X723929Y106401D01*
X723908Y106464D01*
X723872Y106513D01*
X723844Y106567D01*
X723797Y106613D01*
X723758Y106666D01*
X723708Y106701D01*
X723665Y106744D01*
X723606Y106773D01*
X723552Y106811D01*
X723494Y106829D01*
X723439Y106856D01*
X723374Y106866D01*
X723311Y106885D01*
X723250Y106884D01*
X723190Y106893D01*
X723125Y106882D01*
X723059Y106880D01*
X723002Y106860D01*
X722941Y106850D01*
X722883Y106819D01*
X722821Y106797D01*
X722768Y106758D01*
X722719Y106732D01*
X722683Y106695D01*
X722635Y106659D01*
X711331Y95355D01*
X711289Y95297D01*
X711240Y95246D01*
X711216Y95196D01*
X711183Y95151D01*
X711161Y95083D01*
X711130Y95019D01*
X711122Y94960D01*
X711106Y94911D01*
X711106Y94855D01*
X711097Y94790D01*
X711097Y82787D01*
X710169Y80546D01*
X708454Y78831D01*
X706213Y77903D01*
X691461Y77903D01*
X691421Y77897D01*
X691380Y77899D01*
X691285Y77875D01*
X691212Y77864D01*
X691187Y77850D01*
X691155Y77842D01*
X690380Y77521D01*
X684620Y77521D01*
X683845Y77842D01*
X683805Y77852D01*
X683768Y77870D01*
X683671Y77884D01*
X683599Y77901D01*
X683571Y77899D01*
X683539Y77903D01*
X668787Y77903D01*
X666546Y78831D01*
X664831Y80546D01*
X663903Y82787D01*
X663903Y101213D01*
X664831Y103454D01*
X666546Y105169D01*
X668787Y106097D01*
X680790Y106097D01*
X680860Y106108D01*
X680931Y106109D01*
X680983Y106128D01*
X681039Y106136D01*
X681102Y106169D01*
X681169Y106192D01*
X681217Y106228D01*
X681263Y106252D01*
X681302Y106291D01*
X681355Y106331D01*
X686459Y111435D01*
X686497Y111488D01*
X686544Y111535D01*
X686571Y111590D01*
X686607Y111639D01*
X686627Y111702D01*
X686656Y111761D01*
X686665Y111821D01*
X686684Y111879D01*
X686683Y111945D01*
X686693Y112010D01*
X686682Y112070D01*
X686682Y112131D01*
X686661Y112194D01*
X686650Y112259D01*
X686621Y112312D01*
X686602Y112370D01*
X686563Y112423D01*
X686532Y112481D01*
X686488Y112523D01*
X686452Y112572D01*
X686398Y112610D01*
X686350Y112656D01*
X686295Y112682D01*
X686246Y112718D01*
X686183Y112737D01*
X686123Y112766D01*
X686058Y112775D01*
X686005Y112792D01*
X685953Y112791D01*
X685894Y112799D01*
X628800Y112799D01*
X628795Y112798D01*
X628790Y112799D01*
X628670Y112778D01*
X628551Y112760D01*
X628547Y112757D01*
X628541Y112756D01*
X628434Y112699D01*
X628327Y112644D01*
X628323Y112641D01*
X628319Y112638D01*
X628236Y112552D01*
X628150Y112465D01*
X628147Y112460D01*
X628144Y112457D01*
X628092Y112348D01*
X628037Y112239D01*
X628037Y112234D01*
X628034Y112230D01*
X628001Y112000D01*
X628001Y11200D01*
X628002Y11195D01*
X628001Y11190D01*
X628022Y11070D01*
X628041Y10951D01*
X628043Y10947D01*
X628044Y10941D01*
X628101Y10834D01*
X628156Y10727D01*
X628159Y10723D01*
X628162Y10719D01*
X628248Y10636D01*
X628335Y10550D01*
X628340Y10547D01*
X628344Y10544D01*
X628452Y10492D01*
X628561Y10437D01*
X628566Y10437D01*
X628571Y10434D01*
X628800Y10401D01*
X723200Y10401D01*
X723205Y10402D01*
G37*
G36*
X885698Y137716D02*
X885698Y137716D01*
X885797Y137723D01*
X885830Y137735D01*
X885865Y137741D01*
X885954Y137783D01*
X886046Y137819D01*
X886074Y137841D01*
X886106Y137856D01*
X886178Y137924D01*
X886256Y137985D01*
X886276Y138014D01*
X886302Y138038D01*
X886352Y138124D01*
X886408Y138205D01*
X886419Y138239D01*
X886436Y138269D01*
X886459Y138366D01*
X886488Y138460D01*
X886492Y138512D01*
X886497Y138530D01*
X886495Y138548D01*
X886499Y138600D01*
X886499Y225000D01*
X886485Y225098D01*
X886477Y225197D01*
X886465Y225230D01*
X886459Y225265D01*
X886417Y225354D01*
X886381Y225446D01*
X886359Y225474D01*
X886344Y225506D01*
X886276Y225578D01*
X886215Y225656D01*
X886186Y225676D01*
X886162Y225702D01*
X886076Y225752D01*
X885995Y225808D01*
X885961Y225819D01*
X885931Y225836D01*
X885834Y225859D01*
X885740Y225888D01*
X885688Y225892D01*
X885670Y225897D01*
X885652Y225895D01*
X885600Y225899D01*
X842400Y225899D01*
X842302Y225885D01*
X842203Y225877D01*
X842170Y225865D01*
X842136Y225859D01*
X842046Y225817D01*
X841954Y225781D01*
X841926Y225759D01*
X841894Y225744D01*
X841822Y225676D01*
X841744Y225615D01*
X841724Y225586D01*
X841698Y225562D01*
X841648Y225476D01*
X841592Y225395D01*
X841582Y225361D01*
X841564Y225331D01*
X841542Y225234D01*
X841512Y225140D01*
X841508Y225088D01*
X841504Y225070D01*
X841505Y225052D01*
X841501Y225000D01*
X841501Y138600D01*
X841516Y138502D01*
X841523Y138403D01*
X841535Y138370D01*
X841541Y138336D01*
X841583Y138246D01*
X841619Y138154D01*
X841641Y138126D01*
X841656Y138094D01*
X841724Y138022D01*
X841785Y137944D01*
X841814Y137924D01*
X841838Y137898D01*
X841924Y137848D01*
X842005Y137792D01*
X842039Y137782D01*
X842069Y137764D01*
X842166Y137742D01*
X842260Y137712D01*
X842312Y137708D01*
X842330Y137704D01*
X842348Y137705D01*
X842400Y137701D01*
X885600Y137701D01*
X885698Y137716D01*
G37*
G36*
X828098Y170116D02*
X828098Y170116D01*
X828197Y170123D01*
X828230Y170135D01*
X828265Y170141D01*
X828354Y170183D01*
X828446Y170219D01*
X828474Y170241D01*
X828506Y170256D01*
X828578Y170324D01*
X828656Y170385D01*
X828676Y170414D01*
X828702Y170438D01*
X828752Y170524D01*
X828808Y170605D01*
X828819Y170639D01*
X828836Y170669D01*
X828859Y170766D01*
X828888Y170860D01*
X828892Y170912D01*
X828897Y170930D01*
X828895Y170948D01*
X828899Y171000D01*
X828899Y225000D01*
X828885Y225098D01*
X828877Y225197D01*
X828865Y225230D01*
X828859Y225265D01*
X828817Y225354D01*
X828781Y225446D01*
X828759Y225474D01*
X828744Y225506D01*
X828676Y225578D01*
X828615Y225656D01*
X828586Y225676D01*
X828562Y225702D01*
X828476Y225752D01*
X828395Y225808D01*
X828361Y225819D01*
X828331Y225836D01*
X828234Y225859D01*
X828140Y225888D01*
X828088Y225892D01*
X828070Y225897D01*
X828052Y225895D01*
X828000Y225899D01*
X775800Y225899D01*
X775702Y225885D01*
X775603Y225877D01*
X775570Y225865D01*
X775536Y225859D01*
X775446Y225817D01*
X775354Y225781D01*
X775326Y225759D01*
X775294Y225744D01*
X775222Y225676D01*
X775144Y225615D01*
X775124Y225586D01*
X775098Y225562D01*
X775048Y225476D01*
X774992Y225395D01*
X774982Y225361D01*
X774964Y225331D01*
X774942Y225234D01*
X774912Y225140D01*
X774908Y225088D01*
X774904Y225070D01*
X774905Y225052D01*
X774901Y225000D01*
X774901Y171000D01*
X774916Y170902D01*
X774923Y170803D01*
X774935Y170770D01*
X774941Y170736D01*
X774983Y170646D01*
X775019Y170554D01*
X775041Y170526D01*
X775056Y170494D01*
X775124Y170422D01*
X775185Y170344D01*
X775214Y170324D01*
X775238Y170298D01*
X775324Y170248D01*
X775405Y170192D01*
X775439Y170182D01*
X775469Y170164D01*
X775566Y170142D01*
X775660Y170112D01*
X775712Y170108D01*
X775730Y170104D01*
X775748Y170105D01*
X775800Y170101D01*
X828000Y170101D01*
X828098Y170116D01*
G37*
G36*
X340605Y381602D02*
X340605Y381602D01*
X340610Y381601D01*
X340730Y381622D01*
X340849Y381641D01*
X340853Y381643D01*
X340859Y381644D01*
X340966Y381701D01*
X341073Y381756D01*
X341077Y381759D01*
X341081Y381762D01*
X341164Y381848D01*
X341250Y381935D01*
X341253Y381940D01*
X341256Y381944D01*
X341308Y382052D01*
X341363Y382161D01*
X341363Y382166D01*
X341366Y382171D01*
X341399Y382400D01*
X341399Y406960D01*
X341398Y406965D01*
X341399Y406970D01*
X341378Y407090D01*
X341360Y407209D01*
X341357Y407213D01*
X341356Y407219D01*
X341299Y407326D01*
X341244Y407433D01*
X341241Y407437D01*
X341238Y407441D01*
X341152Y407524D01*
X341065Y407610D01*
X341060Y407613D01*
X341057Y407616D01*
X340948Y407668D01*
X340839Y407723D01*
X340834Y407723D01*
X340830Y407726D01*
X340600Y407759D01*
X329248Y407759D01*
X327759Y409248D01*
X327759Y428352D01*
X329248Y429841D01*
X340600Y429841D01*
X340605Y429842D01*
X340610Y429841D01*
X340730Y429862D01*
X340849Y429880D01*
X340853Y429883D01*
X340859Y429884D01*
X340966Y429941D01*
X341073Y429996D01*
X341077Y429999D01*
X341081Y430002D01*
X341164Y430088D01*
X341250Y430175D01*
X341253Y430180D01*
X341256Y430183D01*
X341308Y430292D01*
X341363Y430401D01*
X341363Y430406D01*
X341366Y430410D01*
X341399Y430640D01*
X341399Y445760D01*
X341398Y445765D01*
X341399Y445770D01*
X341378Y445890D01*
X341360Y446009D01*
X341357Y446013D01*
X341356Y446019D01*
X341299Y446126D01*
X341244Y446233D01*
X341241Y446237D01*
X341238Y446241D01*
X341152Y446324D01*
X341065Y446410D01*
X341060Y446413D01*
X341057Y446416D01*
X340948Y446468D01*
X340839Y446523D01*
X340834Y446523D01*
X340830Y446526D01*
X340600Y446559D01*
X295156Y446559D01*
X295086Y446548D01*
X295015Y446547D01*
X294963Y446528D01*
X294907Y446520D01*
X294844Y446487D01*
X294777Y446464D01*
X294729Y446428D01*
X294683Y446404D01*
X294644Y446365D01*
X294591Y446325D01*
X292825Y444559D01*
X292783Y444501D01*
X292734Y444450D01*
X292710Y444400D01*
X292677Y444355D01*
X292655Y444287D01*
X292624Y444223D01*
X292616Y444164D01*
X292600Y444115D01*
X292600Y444059D01*
X292591Y443994D01*
X292591Y397483D01*
X292602Y397413D01*
X292603Y397342D01*
X292622Y397290D01*
X292630Y397235D01*
X292663Y397171D01*
X292686Y397104D01*
X292722Y397056D01*
X292746Y397010D01*
X292785Y396971D01*
X292825Y396918D01*
X294341Y395402D01*
X294341Y382400D01*
X294342Y382395D01*
X294341Y382390D01*
X294362Y382270D01*
X294380Y382151D01*
X294383Y382147D01*
X294384Y382141D01*
X294441Y382034D01*
X294496Y381927D01*
X294499Y381923D01*
X294502Y381919D01*
X294588Y381836D01*
X294675Y381750D01*
X294680Y381747D01*
X294683Y381744D01*
X294792Y381692D01*
X294901Y381637D01*
X294906Y381637D01*
X294910Y381634D01*
X295140Y381601D01*
X340600Y381601D01*
X340605Y381602D01*
G37*
G36*
X585754Y392573D02*
X585754Y392573D01*
X585830Y392575D01*
X585877Y392593D01*
X585927Y392600D01*
X585995Y392636D01*
X586067Y392662D01*
X586110Y392694D01*
X586151Y392716D01*
X586194Y392759D01*
X586251Y392803D01*
X588373Y394985D01*
X588411Y395039D01*
X588456Y395086D01*
X588483Y395141D01*
X588518Y395192D01*
X588537Y395254D01*
X588566Y395313D01*
X588575Y395379D01*
X588592Y395433D01*
X588591Y395484D01*
X588599Y395542D01*
X588599Y447400D01*
X588598Y447405D01*
X588599Y447410D01*
X588578Y447530D01*
X588560Y447649D01*
X588557Y447653D01*
X588556Y447659D01*
X588499Y447766D01*
X588444Y447873D01*
X588441Y447877D01*
X588438Y447881D01*
X588352Y447964D01*
X588265Y448050D01*
X588260Y448053D01*
X588257Y448056D01*
X588148Y448108D01*
X588039Y448163D01*
X588034Y448163D01*
X588030Y448166D01*
X587800Y448199D01*
X546540Y448199D01*
X546535Y448198D01*
X546530Y448199D01*
X546410Y448178D01*
X546291Y448160D01*
X546287Y448157D01*
X546281Y448156D01*
X546174Y448099D01*
X546067Y448044D01*
X546063Y448041D01*
X546059Y448038D01*
X545976Y447952D01*
X545890Y447865D01*
X545887Y447860D01*
X545884Y447857D01*
X545832Y447748D01*
X545777Y447639D01*
X545777Y447634D01*
X545774Y447630D01*
X545741Y447400D01*
X545741Y435848D01*
X544252Y434359D01*
X540400Y434359D01*
X540395Y434358D01*
X540390Y434359D01*
X540270Y434338D01*
X540151Y434320D01*
X540147Y434317D01*
X540141Y434316D01*
X540034Y434259D01*
X539927Y434204D01*
X539923Y434201D01*
X539919Y434198D01*
X539835Y434112D01*
X539750Y434025D01*
X539747Y434020D01*
X539744Y434017D01*
X539692Y433908D01*
X539637Y433799D01*
X539637Y433794D01*
X539634Y433790D01*
X539601Y433560D01*
X539601Y393360D01*
X539602Y393355D01*
X539601Y393350D01*
X539622Y393230D01*
X539641Y393111D01*
X539643Y393107D01*
X539644Y393101D01*
X539701Y392994D01*
X539756Y392887D01*
X539759Y392883D01*
X539762Y392879D01*
X539848Y392796D01*
X539935Y392710D01*
X539940Y392707D01*
X539944Y392704D01*
X540052Y392652D01*
X540161Y392597D01*
X540166Y392597D01*
X540171Y392594D01*
X540400Y392561D01*
X585678Y392561D01*
X585754Y392573D01*
G37*
%LPC*%
G36*
X376216Y599735D02*
X376216Y599735D01*
X373835Y602116D01*
X373835Y619063D01*
X373824Y619135D01*
X373817Y619232D01*
X373573Y620355D01*
X373549Y620418D01*
X373527Y620499D01*
X372945Y621865D01*
X372931Y623232D01*
X372919Y623302D01*
X372912Y623394D01*
X372622Y624729D01*
X372886Y626191D01*
X372887Y626259D01*
X372899Y626342D01*
X372596Y655892D01*
X372589Y655929D01*
X372592Y655965D01*
X372566Y656067D01*
X372553Y656141D01*
X372542Y656163D01*
X372535Y656190D01*
X370685Y660655D01*
X370685Y667345D01*
X373245Y673525D01*
X377975Y678255D01*
X384155Y680815D01*
X390845Y680815D01*
X397025Y678255D01*
X401755Y673525D01*
X404315Y667345D01*
X404315Y660655D01*
X402628Y656582D01*
X402617Y656539D01*
X402598Y656498D01*
X402586Y656406D01*
X402569Y656337D01*
X402572Y656305D01*
X402567Y656268D01*
X402809Y632656D01*
X402809Y632655D01*
X402809Y632654D01*
X402831Y632529D01*
X402851Y632407D01*
X402852Y632406D01*
X402852Y632405D01*
X402916Y632285D01*
X402969Y632184D01*
X402970Y632184D01*
X402970Y632183D01*
X403061Y632095D01*
X403150Y632009D01*
X403151Y632009D01*
X403152Y632008D01*
X403263Y631954D01*
X403377Y631899D01*
X403378Y631899D01*
X403379Y631898D01*
X403579Y631869D01*
X405965Y629484D01*
X405965Y602116D01*
X403584Y599735D01*
X376216Y599735D01*
G37*
%LPD*%
G36*
X392099Y383211D02*
X392099Y383211D01*
X392165Y383212D01*
X392223Y383231D01*
X392283Y383241D01*
X392342Y383271D01*
X392404Y383292D01*
X392453Y383328D01*
X392507Y383356D01*
X392553Y383403D01*
X392606Y383442D01*
X392641Y383492D01*
X392684Y383535D01*
X392714Y383594D01*
X392752Y383648D01*
X392769Y383706D01*
X392797Y383761D01*
X392806Y383826D01*
X392826Y383889D01*
X392824Y383950D01*
X392833Y384010D01*
X392822Y384075D01*
X392821Y384141D01*
X392801Y384198D01*
X392790Y384259D01*
X392759Y384317D01*
X392738Y384379D01*
X392698Y384432D01*
X392672Y384481D01*
X392635Y384517D01*
X392599Y384565D01*
X391039Y386125D01*
X391039Y389118D01*
X391040Y389120D01*
X391073Y389165D01*
X391095Y389232D01*
X391126Y389296D01*
X391134Y389356D01*
X391150Y389405D01*
X391150Y389461D01*
X391159Y389526D01*
X391159Y445760D01*
X391158Y445765D01*
X391159Y445770D01*
X391138Y445890D01*
X391120Y446009D01*
X391117Y446013D01*
X391116Y446019D01*
X391059Y446126D01*
X391004Y446233D01*
X391001Y446237D01*
X390998Y446241D01*
X390912Y446324D01*
X390825Y446410D01*
X390820Y446413D01*
X390817Y446416D01*
X390708Y446468D01*
X390599Y446523D01*
X390594Y446523D01*
X390590Y446526D01*
X390360Y446559D01*
X368940Y446559D01*
X368935Y446558D01*
X368930Y446559D01*
X368810Y446538D01*
X368691Y446520D01*
X368687Y446517D01*
X368681Y446516D01*
X368574Y446459D01*
X368467Y446404D01*
X368463Y446401D01*
X368459Y446398D01*
X368376Y446312D01*
X368290Y446225D01*
X368287Y446220D01*
X368284Y446217D01*
X368232Y446108D01*
X368177Y445999D01*
X368177Y445994D01*
X368174Y445990D01*
X368141Y445760D01*
X368141Y445748D01*
X366652Y444259D01*
X357548Y444259D01*
X356305Y445502D01*
X356252Y445540D01*
X356205Y445587D01*
X356150Y445614D01*
X356101Y445650D01*
X356038Y445670D01*
X355979Y445699D01*
X355919Y445708D01*
X355861Y445727D01*
X355795Y445726D01*
X355730Y445736D01*
X355670Y445725D01*
X355609Y445725D01*
X355546Y445704D01*
X355481Y445693D01*
X355428Y445664D01*
X355370Y445645D01*
X355317Y445606D01*
X355259Y445575D01*
X355217Y445531D01*
X355168Y445494D01*
X355130Y445441D01*
X355084Y445393D01*
X355058Y445338D01*
X355022Y445289D01*
X355003Y445225D01*
X354974Y445166D01*
X354965Y445101D01*
X354948Y445048D01*
X354949Y444996D01*
X354941Y444937D01*
X354941Y434048D01*
X353452Y432559D01*
X353140Y432559D01*
X353135Y432558D01*
X353130Y432559D01*
X353010Y432538D01*
X352891Y432520D01*
X352887Y432517D01*
X352881Y432516D01*
X352774Y432459D01*
X352667Y432404D01*
X352663Y432401D01*
X352659Y432398D01*
X352576Y432312D01*
X352490Y432225D01*
X352487Y432220D01*
X352484Y432217D01*
X352432Y432108D01*
X352377Y431999D01*
X352377Y431994D01*
X352374Y431990D01*
X352341Y431760D01*
X352341Y426975D01*
X352235Y426869D01*
X352193Y426811D01*
X352144Y426760D01*
X352120Y426710D01*
X352087Y426665D01*
X352065Y426597D01*
X352034Y426533D01*
X352026Y426474D01*
X352010Y426425D01*
X352010Y426369D01*
X352001Y426304D01*
X352001Y384000D01*
X352002Y383995D01*
X352001Y383990D01*
X352022Y383870D01*
X352041Y383751D01*
X352043Y383747D01*
X352044Y383741D01*
X352101Y383634D01*
X352156Y383527D01*
X352159Y383523D01*
X352162Y383519D01*
X352248Y383436D01*
X352335Y383350D01*
X352340Y383347D01*
X352344Y383344D01*
X352452Y383292D01*
X352561Y383237D01*
X352566Y383237D01*
X352571Y383234D01*
X352800Y383201D01*
X392034Y383201D01*
X392099Y383211D01*
G37*
G36*
X888365Y232802D02*
X888365Y232802D01*
X888370Y232801D01*
X888490Y232822D01*
X888609Y232841D01*
X888613Y232843D01*
X888619Y232844D01*
X888726Y232901D01*
X888833Y232956D01*
X888837Y232959D01*
X888841Y232962D01*
X888924Y233048D01*
X889010Y233135D01*
X889013Y233140D01*
X889016Y233144D01*
X889068Y233252D01*
X889123Y233361D01*
X889123Y233366D01*
X889126Y233371D01*
X889159Y233600D01*
X889159Y284800D01*
X889158Y284805D01*
X889159Y284810D01*
X889138Y284930D01*
X889120Y285049D01*
X889117Y285053D01*
X889116Y285059D01*
X889059Y285166D01*
X889004Y285273D01*
X889001Y285277D01*
X888998Y285281D01*
X888912Y285364D01*
X888825Y285450D01*
X888820Y285453D01*
X888817Y285456D01*
X888708Y285508D01*
X888599Y285563D01*
X888594Y285563D01*
X888590Y285566D01*
X888360Y285599D01*
X850229Y285599D01*
X850194Y285594D01*
X850158Y285596D01*
X850070Y285574D01*
X849980Y285560D01*
X849949Y285543D01*
X849914Y285534D01*
X849837Y285486D01*
X849756Y285444D01*
X849731Y285419D01*
X849701Y285400D01*
X849643Y285330D01*
X849579Y285265D01*
X849563Y285233D01*
X849540Y285205D01*
X849507Y285121D01*
X849467Y285039D01*
X849461Y285004D01*
X849448Y284971D01*
X849443Y284880D01*
X849430Y284790D01*
X849436Y284755D01*
X849434Y284719D01*
X849460Y284616D01*
X849473Y284541D01*
X849484Y284520D01*
X849491Y284494D01*
X849997Y283273D01*
X849997Y263847D01*
X849069Y261606D01*
X847282Y259820D01*
X847281Y259819D01*
X847241Y259779D01*
X847211Y259737D01*
X847144Y259668D01*
X847134Y259646D01*
X847118Y259628D01*
X847100Y259584D01*
X847093Y259575D01*
X847083Y259542D01*
X847079Y259533D01*
X847034Y259441D01*
X847031Y259416D01*
X847022Y259395D01*
X847018Y259341D01*
X847016Y259335D01*
X847016Y259318D01*
X847001Y259211D01*
X847001Y250746D01*
X847002Y250741D01*
X847001Y250736D01*
X847022Y250616D01*
X847041Y250497D01*
X847043Y250493D01*
X847044Y250487D01*
X847101Y250380D01*
X847156Y250273D01*
X847159Y250269D01*
X847162Y250265D01*
X847248Y250182D01*
X847335Y250096D01*
X847340Y250093D01*
X847344Y250090D01*
X847452Y250038D01*
X847561Y249983D01*
X847566Y249983D01*
X847571Y249980D01*
X847800Y249947D01*
X848253Y249947D01*
X850494Y249019D01*
X852209Y247304D01*
X853137Y245063D01*
X853137Y233600D01*
X853138Y233595D01*
X853137Y233590D01*
X853158Y233470D01*
X853176Y233351D01*
X853179Y233347D01*
X853180Y233341D01*
X853237Y233234D01*
X853292Y233127D01*
X853295Y233123D01*
X853298Y233119D01*
X853384Y233036D01*
X853471Y232950D01*
X853476Y232947D01*
X853479Y232944D01*
X853588Y232892D01*
X853697Y232837D01*
X853702Y232837D01*
X853706Y232834D01*
X853936Y232801D01*
X888360Y232801D01*
X888365Y232802D01*
G37*
G36*
X826605Y231998D02*
X826605Y231998D01*
X826610Y231997D01*
X826730Y232018D01*
X826849Y232036D01*
X826853Y232039D01*
X826859Y232040D01*
X826966Y232097D01*
X827073Y232152D01*
X827077Y232155D01*
X827081Y232158D01*
X827164Y232244D01*
X827250Y232331D01*
X827253Y232336D01*
X827256Y232339D01*
X827308Y232448D01*
X827363Y232557D01*
X827363Y232562D01*
X827366Y232566D01*
X827399Y232796D01*
X827399Y258164D01*
X827398Y258169D01*
X827399Y258174D01*
X827378Y258294D01*
X827360Y258413D01*
X827357Y258417D01*
X827356Y258423D01*
X827299Y258530D01*
X827244Y258637D01*
X827241Y258641D01*
X827238Y258645D01*
X827152Y258728D01*
X827065Y258814D01*
X827060Y258817D01*
X827057Y258820D01*
X826948Y258872D01*
X826839Y258927D01*
X826834Y258927D01*
X826830Y258930D01*
X826600Y258963D01*
X824687Y258963D01*
X822446Y259891D01*
X820731Y261606D01*
X819803Y263847D01*
X819803Y283273D01*
X820309Y284494D01*
X820318Y284529D01*
X820333Y284561D01*
X820347Y284651D01*
X820368Y284739D01*
X820365Y284775D01*
X820370Y284810D01*
X820354Y284900D01*
X820347Y284991D01*
X820333Y285023D01*
X820327Y285059D01*
X820284Y285139D01*
X820249Y285223D01*
X820226Y285250D01*
X820209Y285281D01*
X820143Y285344D01*
X820084Y285413D01*
X820053Y285431D01*
X820027Y285456D01*
X819945Y285496D01*
X819867Y285542D01*
X819832Y285550D01*
X819800Y285566D01*
X819695Y285581D01*
X819621Y285598D01*
X819597Y285595D01*
X819571Y285599D01*
X792052Y285599D01*
X791982Y285588D01*
X791911Y285587D01*
X791859Y285568D01*
X791803Y285560D01*
X791740Y285527D01*
X791673Y285504D01*
X791625Y285468D01*
X791579Y285444D01*
X791540Y285405D01*
X791487Y285365D01*
X790654Y284531D01*
X790423Y284436D01*
X790363Y284399D01*
X790298Y284370D01*
X790256Y284333D01*
X790208Y284304D01*
X790162Y284250D01*
X790109Y284203D01*
X790079Y284151D01*
X790045Y284112D01*
X790024Y284060D01*
X789991Y284003D01*
X789632Y283137D01*
X789235Y282740D01*
X789193Y282682D01*
X789144Y282631D01*
X789120Y282581D01*
X789087Y282536D01*
X789065Y282468D01*
X789034Y282404D01*
X789026Y282345D01*
X789010Y282296D01*
X789010Y282240D01*
X789001Y282175D01*
X789001Y247126D01*
X789002Y247121D01*
X789001Y247116D01*
X789022Y246996D01*
X789041Y246877D01*
X789043Y246873D01*
X789044Y246867D01*
X789101Y246760D01*
X789156Y246653D01*
X789159Y246649D01*
X789162Y246645D01*
X789248Y246562D01*
X789335Y246476D01*
X789340Y246473D01*
X789344Y246470D01*
X789452Y246418D01*
X789561Y246363D01*
X789566Y246363D01*
X789571Y246360D01*
X789800Y246327D01*
X792493Y246327D01*
X794734Y245399D01*
X796449Y243684D01*
X797377Y241443D01*
X797377Y232796D01*
X797378Y232791D01*
X797377Y232786D01*
X797398Y232666D01*
X797416Y232547D01*
X797419Y232543D01*
X797420Y232537D01*
X797477Y232430D01*
X797532Y232323D01*
X797535Y232319D01*
X797538Y232315D01*
X797624Y232232D01*
X797711Y232146D01*
X797716Y232143D01*
X797719Y232140D01*
X797828Y232088D01*
X797937Y232033D01*
X797942Y232033D01*
X797946Y232030D01*
X798176Y231997D01*
X826600Y231997D01*
X826605Y231998D01*
G37*
%LPC*%
G36*
X322465Y558635D02*
X322465Y558635D01*
X316304Y561188D01*
X311588Y565904D01*
X309035Y572065D01*
X309035Y578735D01*
X311588Y584896D01*
X316304Y589612D01*
X322465Y592165D01*
X354535Y592165D01*
X360696Y589612D01*
X365412Y584896D01*
X367965Y578735D01*
X367965Y572065D01*
X365412Y565904D01*
X360696Y561188D01*
X354535Y558635D01*
X322465Y558635D01*
G37*
%LPD*%
%LPC*%
G36*
X322465Y507835D02*
X322465Y507835D01*
X316304Y510388D01*
X311588Y515104D01*
X309035Y521265D01*
X309035Y527935D01*
X311588Y534096D01*
X316304Y538812D01*
X322465Y541365D01*
X354535Y541365D01*
X360696Y538812D01*
X365412Y534096D01*
X367965Y527935D01*
X367965Y521265D01*
X365412Y515104D01*
X360696Y510388D01*
X354535Y507835D01*
X322465Y507835D01*
G37*
%LPD*%
%LPC*%
G36*
X516655Y647185D02*
X516655Y647185D01*
X510475Y649745D01*
X505745Y654475D01*
X503185Y660655D01*
X503185Y667345D01*
X505745Y673525D01*
X510475Y678255D01*
X516655Y680815D01*
X523345Y680815D01*
X529525Y678255D01*
X534255Y673525D01*
X536815Y667345D01*
X536815Y660655D01*
X534255Y654475D01*
X529525Y649745D01*
X523345Y647185D01*
X516655Y647185D01*
G37*
%LPD*%
%LPC*%
G36*
X646655Y647185D02*
X646655Y647185D01*
X640475Y649745D01*
X635745Y654475D01*
X633185Y660655D01*
X633185Y667345D01*
X635745Y673525D01*
X640475Y678255D01*
X646655Y680815D01*
X653345Y680815D01*
X659525Y678255D01*
X664255Y673525D01*
X666815Y667345D01*
X666815Y660655D01*
X664255Y654475D01*
X659525Y649745D01*
X653345Y647185D01*
X646655Y647185D01*
G37*
%LPD*%
%LPC*%
G36*
X677692Y702245D02*
X677692Y702245D01*
X673426Y704012D01*
X670162Y707276D01*
X668395Y711542D01*
X668395Y716158D01*
X670162Y720424D01*
X673426Y723688D01*
X677692Y725455D01*
X682308Y725455D01*
X686574Y723688D01*
X689838Y720424D01*
X690512Y718797D01*
X690546Y718741D01*
X690572Y718680D01*
X690612Y718634D01*
X690644Y718583D01*
X690694Y718540D01*
X690737Y718490D01*
X690789Y718459D01*
X690836Y718420D01*
X690897Y718395D01*
X690954Y718361D01*
X691013Y718348D01*
X691069Y718325D01*
X691135Y718320D01*
X691200Y718306D01*
X691260Y718311D01*
X691321Y718307D01*
X691385Y718323D01*
X691450Y718329D01*
X691506Y718354D01*
X691565Y718369D01*
X691621Y718404D01*
X691681Y718430D01*
X691727Y718471D01*
X691778Y718503D01*
X691820Y718554D01*
X691870Y718598D01*
X691903Y718655D01*
X691939Y718698D01*
X691958Y718746D01*
X691988Y718797D01*
X692662Y720424D01*
X695926Y723688D01*
X700192Y725455D01*
X704808Y725455D01*
X709074Y723688D01*
X712338Y720424D01*
X714105Y716158D01*
X714105Y711542D01*
X712338Y707276D01*
X709074Y704012D01*
X704808Y702245D01*
X700192Y702245D01*
X695926Y704012D01*
X692662Y707276D01*
X691988Y708903D01*
X691954Y708959D01*
X691928Y709020D01*
X691888Y709066D01*
X691856Y709117D01*
X691806Y709160D01*
X691763Y709210D01*
X691711Y709241D01*
X691664Y709280D01*
X691603Y709305D01*
X691546Y709339D01*
X691487Y709352D01*
X691431Y709375D01*
X691365Y709380D01*
X691301Y709394D01*
X691240Y709389D01*
X691179Y709393D01*
X691115Y709377D01*
X691050Y709371D01*
X690994Y709346D01*
X690935Y709331D01*
X690879Y709296D01*
X690819Y709270D01*
X690773Y709229D01*
X690722Y709197D01*
X690680Y709146D01*
X690631Y709102D01*
X690597Y709045D01*
X690561Y709002D01*
X690542Y708954D01*
X690512Y708903D01*
X689838Y707276D01*
X686574Y704012D01*
X682308Y702245D01*
X677692Y702245D01*
G37*
%LPD*%
%LPC*%
G36*
X415192Y702245D02*
X415192Y702245D01*
X410926Y704012D01*
X407662Y707276D01*
X405895Y711542D01*
X405895Y716158D01*
X407662Y720424D01*
X410926Y723688D01*
X415192Y725455D01*
X419808Y725455D01*
X424074Y723688D01*
X427338Y720424D01*
X428012Y718797D01*
X428046Y718741D01*
X428072Y718680D01*
X428112Y718634D01*
X428144Y718583D01*
X428194Y718540D01*
X428237Y718490D01*
X428289Y718459D01*
X428336Y718420D01*
X428397Y718395D01*
X428454Y718361D01*
X428513Y718348D01*
X428569Y718325D01*
X428635Y718320D01*
X428700Y718306D01*
X428760Y718311D01*
X428821Y718307D01*
X428885Y718323D01*
X428950Y718329D01*
X429006Y718354D01*
X429065Y718369D01*
X429121Y718404D01*
X429181Y718430D01*
X429227Y718471D01*
X429278Y718503D01*
X429320Y718554D01*
X429370Y718598D01*
X429403Y718655D01*
X429439Y718698D01*
X429458Y718746D01*
X429488Y718797D01*
X430162Y720424D01*
X433426Y723688D01*
X437692Y725455D01*
X442308Y725455D01*
X446574Y723688D01*
X449838Y720424D01*
X451605Y716158D01*
X451605Y711542D01*
X449838Y707276D01*
X446574Y704012D01*
X442308Y702245D01*
X437692Y702245D01*
X433426Y704012D01*
X430162Y707276D01*
X429488Y708903D01*
X429454Y708959D01*
X429428Y709020D01*
X429388Y709066D01*
X429356Y709117D01*
X429306Y709160D01*
X429263Y709210D01*
X429211Y709241D01*
X429164Y709280D01*
X429103Y709305D01*
X429046Y709339D01*
X428987Y709352D01*
X428931Y709375D01*
X428865Y709380D01*
X428801Y709394D01*
X428740Y709389D01*
X428679Y709393D01*
X428615Y709377D01*
X428550Y709371D01*
X428494Y709346D01*
X428435Y709331D01*
X428379Y709296D01*
X428319Y709270D01*
X428273Y709229D01*
X428222Y709197D01*
X428180Y709146D01*
X428131Y709102D01*
X428097Y709045D01*
X428061Y709002D01*
X428042Y708954D01*
X428012Y708903D01*
X427338Y707276D01*
X424074Y704012D01*
X419808Y702245D01*
X415192Y702245D01*
G37*
%LPD*%
%LPC*%
G36*
X547692Y702245D02*
X547692Y702245D01*
X543426Y704012D01*
X540162Y707276D01*
X538395Y711542D01*
X538395Y716158D01*
X540162Y720424D01*
X543426Y723688D01*
X547692Y725455D01*
X552308Y725455D01*
X556574Y723688D01*
X559435Y720827D01*
X559439Y720824D01*
X559442Y720820D01*
X559541Y720750D01*
X559639Y720679D01*
X559644Y720677D01*
X559648Y720674D01*
X559763Y720639D01*
X559879Y720602D01*
X559884Y720602D01*
X559889Y720600D01*
X560009Y720603D01*
X560131Y720603D01*
X560136Y720605D01*
X560141Y720605D01*
X560254Y720645D01*
X560370Y720683D01*
X560374Y720687D01*
X560379Y720688D01*
X560565Y720827D01*
X563426Y723688D01*
X567692Y725455D01*
X572308Y725455D01*
X576574Y723688D01*
X579838Y720424D01*
X581605Y716158D01*
X581605Y711542D01*
X579838Y707276D01*
X576574Y704012D01*
X572308Y702245D01*
X567692Y702245D01*
X563426Y704012D01*
X560565Y706873D01*
X560561Y706876D01*
X560558Y706880D01*
X560459Y706950D01*
X560361Y707021D01*
X560356Y707023D01*
X560352Y707026D01*
X560237Y707061D01*
X560121Y707098D01*
X560116Y707098D01*
X560111Y707100D01*
X559991Y707097D01*
X559869Y707097D01*
X559864Y707095D01*
X559859Y707095D01*
X559746Y707055D01*
X559630Y707017D01*
X559626Y707013D01*
X559621Y707012D01*
X559435Y706873D01*
X556574Y704012D01*
X552308Y702245D01*
X547692Y702245D01*
G37*
%LPD*%
%LPC*%
G36*
X305192Y702245D02*
X305192Y702245D01*
X300926Y704012D01*
X297662Y707276D01*
X295895Y711542D01*
X295895Y716158D01*
X297662Y720424D01*
X300926Y723688D01*
X305192Y725455D01*
X309808Y725455D01*
X314074Y723688D01*
X317338Y720424D01*
X319105Y716158D01*
X319105Y711542D01*
X317338Y707276D01*
X314074Y704012D01*
X309808Y702245D01*
X305192Y702245D01*
G37*
%LPD*%
%LPC*%
G36*
X810192Y702245D02*
X810192Y702245D01*
X805926Y704012D01*
X802662Y707276D01*
X800895Y711542D01*
X800895Y716158D01*
X802662Y720424D01*
X805926Y723688D01*
X810192Y725455D01*
X814808Y725455D01*
X819074Y723688D01*
X822338Y720424D01*
X824105Y716158D01*
X824105Y711542D01*
X822338Y707276D01*
X819074Y704012D01*
X814808Y702245D01*
X810192Y702245D01*
G37*
%LPD*%
D10*
X108600Y705900D03*
D11*
X108600Y675900D03*
X138600Y705900D03*
X138600Y675900D03*
D12*
X325800Y524600D02*
X351200Y524600D01*
X351200Y575400D02*
X325800Y575400D01*
X548800Y575400D02*
X574200Y575400D01*
X574200Y524600D02*
X548800Y524600D01*
D13*
X604300Y89800D03*
X634300Y89800D03*
X604300Y66400D03*
X634300Y66400D03*
X604300Y43200D03*
X634300Y43200D03*
X604300Y20000D03*
X634300Y20000D03*
D14*
X458700Y442400D03*
D15*
X484100Y339600D03*
X433300Y339600D03*
D16*
X559200Y465200D03*
X546200Y465200D03*
D17*
X612700Y587750D03*
X612700Y570250D03*
D18*
X615000Y523700D03*
X635000Y523700D03*
D19*
X588400Y471400D03*
X588400Y484400D03*
D16*
X620800Y487500D03*
X633800Y487500D03*
X653400Y486600D03*
X666400Y486600D03*
X654400Y500500D03*
X667400Y500500D03*
D20*
X669850Y520800D03*
X652350Y520800D03*
D17*
X618100Y459450D03*
X618100Y441950D03*
D16*
X361900Y439600D03*
X348900Y439600D03*
D21*
X339300Y418800D03*
X380300Y418800D03*
D22*
X389900Y615800D03*
X433900Y615800D03*
X872600Y654000D03*
X872600Y698000D03*
D23*
X384850Y388700D03*
X372150Y388700D03*
X359450Y388700D03*
X346750Y388700D03*
D24*
X365800Y357300D03*
D25*
X346750Y333900D03*
X359450Y333900D03*
X372150Y333900D03*
X384850Y333900D03*
D23*
X570250Y397900D03*
X557550Y397900D03*
X544850Y397900D03*
X532150Y397900D03*
D24*
X551200Y366500D03*
D25*
X532150Y343100D03*
X544850Y343100D03*
X557550Y343100D03*
X570250Y343100D03*
D23*
X327250Y388700D03*
X314550Y388700D03*
X301850Y388700D03*
X289150Y388700D03*
D24*
X308200Y357300D03*
D25*
X289150Y333900D03*
X301850Y333900D03*
X314550Y333900D03*
X327250Y333900D03*
D26*
X782500Y664000D03*
X732500Y664000D03*
D27*
X812500Y713850D03*
X702500Y713850D03*
D26*
X650000Y664000D03*
X600000Y664000D03*
D27*
X680000Y713850D03*
X570000Y713850D03*
D26*
X520000Y664000D03*
X470000Y664000D03*
D27*
X550000Y713850D03*
X440000Y713850D03*
D26*
X387500Y664000D03*
X337500Y664000D03*
D27*
X417500Y713850D03*
X307500Y713850D03*
D16*
X349100Y451300D03*
X362100Y451300D03*
X790100Y308800D03*
X803100Y308800D03*
D10*
X214900Y705900D03*
D11*
X214900Y675900D03*
X244900Y705900D03*
X244900Y675900D03*
D28*
X559300Y160000D03*
D29*
X559300Y109000D03*
X356300Y237000D03*
X356300Y135000D03*
X356300Y33000D03*
X559300Y33000D03*
D28*
X98300Y109600D03*
D29*
X98300Y160600D03*
X301300Y32600D03*
X301300Y134600D03*
X301300Y236600D03*
X98300Y236600D03*
D30*
X790300Y66600D03*
D31*
X687500Y41200D03*
X687500Y92000D03*
D23*
X882490Y238200D03*
X869790Y238200D03*
X857090Y238200D03*
X844390Y238200D03*
D24*
X863440Y206800D03*
D25*
X844390Y183400D03*
X857090Y183400D03*
X869790Y183400D03*
X882490Y183400D03*
D16*
X851140Y310840D03*
X864140Y310840D03*
X863840Y297580D03*
X850840Y297580D03*
D21*
X534200Y445400D03*
X575200Y445400D03*
X834900Y273560D03*
X875900Y273560D03*
D16*
X634200Y500300D03*
X621200Y500300D03*
X796700Y294200D03*
X783700Y294200D03*
D21*
X769700Y273100D03*
X810700Y273100D03*
D23*
X826730Y234580D03*
X814030Y234580D03*
X801330Y234580D03*
X788630Y234580D03*
D24*
X807680Y203180D03*
D25*
X788630Y179780D03*
X801330Y179780D03*
X814030Y179780D03*
X826730Y179780D03*
D16*
X719800Y485300D03*
X732800Y485300D03*
X727200Y502100D03*
X740200Y502100D03*
D20*
X742050Y521000D03*
X724550Y521000D03*
D16*
X689100Y487500D03*
X702100Y487500D03*
X701600Y500900D03*
X688600Y500900D03*
D17*
X689400Y587650D03*
X689400Y570150D03*
D18*
X688800Y524200D03*
X708800Y524200D03*
D17*
X698800Y461550D03*
X698800Y444050D03*
D32*
X657125Y464992D03*
X647600Y464992D03*
X638075Y464992D03*
X638075Y440608D03*
X657125Y440608D03*
X737125Y464992D03*
X727600Y464992D03*
X718075Y464992D03*
X718075Y440608D03*
X737125Y440608D03*
D33*
X716450Y553200D03*
X716450Y605200D03*
X703750Y553200D03*
X729150Y553200D03*
X741850Y553200D03*
X703750Y605200D03*
X729150Y605200D03*
X741850Y605200D03*
X641250Y549600D03*
X641250Y601600D03*
X628550Y549600D03*
X653950Y549600D03*
X666650Y549600D03*
X628550Y601600D03*
X653950Y601600D03*
X666650Y601600D03*
D13*
X26600Y292800D03*
X56600Y292800D03*
X26600Y267200D03*
X56600Y267200D03*
X26600Y241600D03*
X56600Y241600D03*
X26600Y216000D03*
X56600Y216000D03*
D34*
X546000Y278400D03*
X574000Y278400D03*
D35*
X25600Y188400D03*
X25600Y160400D03*
D36*
X649580Y388800D03*
D37*
X614020Y388800D03*
D36*
X732380Y388800D03*
D37*
X696820Y388800D03*
D36*
X647780Y306000D03*
D37*
X612220Y306000D03*
D36*
X647780Y223200D03*
D37*
X612220Y223200D03*
D36*
X730580Y306000D03*
D37*
X695020Y306000D03*
D36*
X730580Y223200D03*
D37*
X695020Y223200D03*
D36*
X689180Y151200D03*
D37*
X653620Y151200D03*
D38*
X759600Y578600D03*
X759600Y598600D03*
D39*
X764600Y621100D03*
X764600Y556100D03*
X812100Y556100D03*
X812100Y621100D03*
D38*
X759600Y477800D03*
X759600Y497800D03*
D39*
X764600Y520300D03*
X764600Y455300D03*
X812100Y455300D03*
X812100Y520300D03*
D40*
X685800Y605300D03*
X685800Y622300D03*
X610200Y605300D03*
X610200Y622300D03*
D41*
X641200Y577600D03*
D42*
X618100Y441950D02*
X618100Y439300D01*
X617200Y438400D01*
D41*
X617200Y438400D03*
D42*
X654400Y510880D02*
X654400Y522830D01*
X652350Y520800D01*
D41*
X654000Y512000D03*
D42*
X635900Y500300D02*
X634200Y500300D01*
X635900Y500300D02*
X636400Y500800D01*
D41*
X636400Y500800D03*
D42*
X716400Y553250D02*
X716450Y553200D01*
X716400Y563200D02*
X716450Y563250D01*
D41*
X716400Y579200D03*
D42*
X708800Y524200D02*
X712000Y521000D01*
X724550Y521000D02*
X727200Y518350D01*
X724550Y521000D02*
X724550Y511850D01*
X728000Y508400D01*
D41*
X728000Y508400D03*
D42*
X712500Y499100D02*
X703400Y499100D01*
X701600Y500900D01*
X710800Y500800D02*
X712500Y499100D01*
D41*
X710800Y500800D03*
D42*
X698800Y444050D02*
X698800Y438200D01*
D41*
X698800Y438200D03*
X581800Y408400D03*
X307400Y401400D03*
X298400Y401400D03*
X385000Y399600D03*
D42*
X857090Y238200D02*
X866260Y244350D01*
D41*
X884880Y252800D03*
X822200Y248000D03*
D43*
X729150Y605200D02*
X716450Y605200D01*
X690450Y571200D02*
X689400Y570150D01*
X690450Y571200D02*
X714360Y571200D01*
X716450Y569110D01*
X716450Y563250D01*
X714360Y577160D02*
X716400Y579200D01*
X714360Y577160D02*
X714360Y571200D01*
X716400Y605150D02*
X716450Y605200D01*
X716400Y605150D02*
X716400Y579200D01*
X716450Y553200D02*
X729150Y553200D01*
X724550Y521000D02*
X712000Y521000D01*
X727200Y507600D02*
X728000Y508400D01*
X727200Y507600D02*
X727200Y502100D01*
X716450Y553200D02*
X716450Y563250D01*
X653950Y549600D02*
X641250Y549600D01*
X633850Y570250D02*
X612700Y570250D01*
X633850Y570250D02*
X641200Y577600D01*
X641250Y601600D02*
X653950Y601600D01*
X641250Y601600D02*
X641250Y577650D01*
X641200Y577600D01*
X641250Y577550D02*
X641250Y549600D01*
X641250Y577550D02*
X641200Y577600D01*
X635000Y523700D02*
X649450Y523700D01*
X652350Y520800D01*
X654000Y512000D02*
X654000Y500900D01*
X654400Y500500D01*
D44*
X657125Y440608D02*
X657125Y440395D01*
X669120Y428400D01*
D41*
X669120Y428400D03*
D44*
X729360Y432843D02*
X737125Y440608D01*
X729360Y432843D02*
X729360Y428160D01*
D41*
X729360Y428160D03*
D44*
X863840Y297580D02*
X863840Y285620D01*
X875900Y273560D01*
D41*
X813200Y248000D03*
X804200Y248000D03*
X795200Y248000D03*
X795200Y257000D03*
X804200Y257000D03*
X813200Y257000D03*
X822200Y257000D03*
X875880Y252800D03*
X866880Y252800D03*
X857880Y252800D03*
X857880Y261800D03*
X866880Y261800D03*
X875880Y261800D03*
X884880Y261800D03*
X884880Y270800D03*
X875880Y270800D03*
X866880Y270800D03*
X857880Y270800D03*
X795200Y266000D03*
X804200Y266000D03*
X813200Y266000D03*
X795200Y275000D03*
X804200Y275000D03*
X813200Y275000D03*
D44*
X791300Y278900D02*
X796700Y294200D01*
X791300Y278900D02*
X795200Y275000D01*
D41*
X316400Y401400D03*
X325400Y401400D03*
X334400Y401400D03*
X298400Y410400D03*
X298400Y419400D03*
X307400Y419400D03*
X307400Y410400D03*
X316400Y410400D03*
X316400Y419400D03*
X316400Y428400D03*
X307400Y428400D03*
X298400Y428400D03*
X298400Y437400D03*
X307400Y437400D03*
X316400Y437400D03*
X325400Y437400D03*
X334400Y437400D03*
X376000Y399600D03*
X367000Y399600D03*
X358000Y399600D03*
X385000Y408600D03*
X376000Y408600D03*
X367000Y408600D03*
X358000Y408600D03*
X358000Y417600D03*
X358000Y426600D03*
X367000Y426600D03*
X367000Y417600D03*
X376000Y417600D03*
X376000Y426600D03*
X385000Y426600D03*
X385000Y417600D03*
X385000Y435600D03*
X376000Y435600D03*
X367000Y435600D03*
D44*
X559200Y461400D02*
X559200Y465200D01*
X559200Y461400D02*
X575200Y445400D01*
D41*
X572800Y408400D03*
X563800Y408400D03*
X554800Y408400D03*
X545800Y408400D03*
X545800Y417400D03*
X554800Y417400D03*
X563800Y417400D03*
X572800Y417400D03*
X581800Y417400D03*
X581800Y426400D03*
X572800Y426400D03*
X563800Y426400D03*
X554800Y426400D03*
X545800Y426400D03*
D45*
X860000Y685400D02*
X872600Y698000D01*
X860000Y685400D02*
X794000Y685400D01*
X782500Y666327D01*
X782500Y664000D01*
D46*
X387500Y664000D02*
X387900Y625000D01*
X389900Y615800D01*
D41*
X818120Y220560D03*
X649600Y24000D03*
X649600Y49600D03*
X649600Y76800D03*
X649600Y100800D03*
D47*
X56600Y241600D02*
X56600Y292800D01*
X57600Y245800D02*
X56600Y241600D01*
X56600Y216000D01*
X98300Y160600D02*
X98300Y157700D01*
X155200Y100800D01*
X551100Y100800D01*
X559300Y109000D01*
X634300Y89800D02*
X634300Y72900D01*
X638400Y68800D01*
X644800Y68800D01*
X649600Y49600D01*
X98300Y168900D02*
X56600Y210600D01*
X56600Y216000D01*
D41*
X807320Y220560D03*
X796520Y220560D03*
X785720Y220560D03*
X785720Y209760D03*
X796520Y209760D03*
X807320Y209760D03*
X818120Y209760D03*
X818120Y198960D03*
X807320Y198960D03*
X796520Y198960D03*
X785720Y198960D03*
X785720Y188160D03*
X796520Y188160D03*
X809120Y188160D03*
X819920Y188160D03*
D44*
X546200Y465200D02*
X546200Y470600D01*
X552600Y477000D01*
X574200Y477000D01*
X584100Y467100D01*
X588400Y471400D01*
X546200Y465200D02*
X546200Y457400D01*
X534200Y445400D01*
X534200Y399950D01*
X532150Y397900D01*
D42*
X628550Y544150D02*
X628550Y549600D01*
X614000Y529600D02*
X614000Y521600D01*
X617200Y518400D01*
X617200Y521500D01*
X615000Y523700D01*
X634300Y488000D02*
X633800Y487500D01*
X618100Y464900D02*
X618100Y459450D01*
X634800Y486500D02*
X634700Y486600D01*
D43*
X628550Y537250D02*
X628550Y544150D01*
X628550Y537250D02*
X615000Y523700D01*
X645000Y486600D02*
X653400Y486600D01*
X645000Y486600D02*
X634700Y486600D01*
X633800Y487500D01*
X617200Y515360D02*
X617200Y518400D01*
X617200Y515360D02*
X622560Y510000D01*
X645000Y510000D01*
X645000Y486600D01*
X634700Y486600D02*
X634700Y479300D01*
X626640Y471240D01*
X626640Y469240D01*
X618100Y459450D01*
X625920Y452880D01*
X588400Y484400D02*
X586960Y484400D01*
X596040Y475320D01*
X596040Y469200D01*
X606240Y459000D01*
X616400Y459000D01*
X618100Y459450D01*
D44*
X647600Y457520D02*
X647600Y464992D01*
X647600Y457520D02*
X642960Y452880D01*
X625920Y452880D01*
X349100Y451300D02*
X349100Y439800D01*
X348900Y439600D01*
X348900Y428400D01*
X339300Y418800D01*
X289150Y445750D02*
X289150Y388700D01*
X289150Y445750D02*
X293400Y450000D01*
X346750Y411350D02*
X346750Y388700D01*
X346750Y411350D02*
X339300Y418800D01*
X347800Y450000D02*
X293400Y450000D01*
X347800Y450000D02*
X349100Y451300D01*
D43*
X657125Y459115D02*
X657125Y464992D01*
X657125Y459115D02*
X665400Y450840D01*
X665400Y418200D01*
X634440Y418200D01*
X628320Y412080D01*
X609960Y412080D01*
X587520Y389000D01*
X512040Y389000D01*
X510000Y387600D01*
X394600Y387600D01*
D44*
X394600Y447800D01*
X392400Y450000D01*
X363400Y450000D01*
X362100Y451300D01*
D48*
X108600Y268900D03*
D47*
X121500Y268900D01*
X153600Y236800D01*
X301100Y236800D01*
X301300Y236600D01*
X741100Y145600D02*
X838600Y145600D01*
X741100Y145600D02*
X687500Y92000D01*
X838600Y145600D02*
X858600Y165600D01*
X858600Y206240D01*
X863440Y206800D01*
D44*
X778300Y281700D02*
X773900Y277300D01*
X769700Y273100D01*
X769700Y261700D01*
X781200Y250200D01*
X781200Y236610D01*
X788630Y234580D01*
X790100Y307700D02*
X790100Y308800D01*
X790100Y307700D02*
X783000Y300600D01*
X783000Y294900D01*
X783700Y294200D01*
X783700Y287100D01*
X778300Y281700D01*
D42*
X628550Y601600D02*
X626550Y601600D01*
D43*
X612700Y587750D01*
D49*
X610200Y605300D02*
X622850Y605300D01*
X626550Y601600D01*
D44*
X848380Y297580D02*
X850840Y297580D01*
X848380Y297580D02*
X836400Y285600D01*
X836400Y275060D01*
X834900Y273560D01*
X834900Y242290D01*
X844390Y238200D01*
X851140Y297880D02*
X851140Y310840D01*
X851140Y297880D02*
X850840Y297580D01*
D50*
X871200Y650400D02*
X872600Y654000D01*
X871200Y650400D02*
X870400Y649600D01*
D47*
X563200Y73600D02*
X75200Y73600D01*
X563200Y73600D02*
X564800Y75200D01*
D48*
X564800Y75200D03*
D47*
X49600Y136400D02*
X25600Y160400D01*
X49600Y136400D02*
X49600Y129600D01*
X73600Y105600D01*
X73600Y75200D01*
X75200Y73600D01*
D43*
X873638Y516120D02*
X873703Y516185D01*
D48*
X618120Y144840D03*
D51*
X872600Y595800D02*
X872600Y654000D01*
X872600Y595800D02*
X872600Y518400D01*
X872600Y514800D01*
X872600Y455000D01*
X829800Y412200D01*
X779400Y412200D01*
X700200Y412200D01*
X614020Y307800D02*
X612220Y306000D01*
X696820Y388800D02*
X696820Y408820D01*
X700200Y412200D01*
X612220Y306000D02*
X612220Y282600D01*
X612220Y250200D01*
X612220Y223200D01*
X612220Y192600D01*
X639110Y165710D01*
X653620Y151200D01*
X618240Y144840D02*
X618120Y144840D01*
X618240Y144840D02*
X639110Y165710D01*
X695020Y223200D02*
X695020Y240980D01*
X687600Y248400D01*
X614020Y248400D01*
X612220Y250200D01*
X779400Y412200D02*
X779620Y411980D01*
X695020Y351000D02*
X695020Y306000D01*
X695020Y351000D02*
X695020Y387000D01*
X696820Y388800D01*
X614020Y388800D02*
X614020Y363380D01*
X628200Y349200D01*
X693220Y349200D01*
X695020Y351000D01*
X614020Y335020D02*
X614020Y307800D01*
X614020Y335020D02*
X628200Y349200D01*
X608020Y278400D02*
X574000Y278400D01*
X608020Y278400D02*
X612220Y282600D01*
D43*
X804276Y593576D02*
X870376Y593576D01*
X872600Y595800D01*
X838880Y478320D02*
X772120Y478320D01*
X838880Y478320D02*
X872600Y514800D01*
X873703Y516185D02*
X873703Y517297D01*
X872600Y518400D01*
D42*
X804276Y593576D02*
X774576Y593576D01*
X759600Y578600D01*
X772120Y478320D02*
X771600Y477800D01*
X759600Y477800D01*
X666400Y484400D02*
X666400Y486600D01*
X638075Y464992D02*
X638000Y465067D01*
D43*
X669850Y502950D02*
X669850Y520800D01*
X669850Y502950D02*
X667400Y500500D01*
X667400Y487600D01*
X666400Y486600D01*
X666400Y484400D02*
X666400Y480400D01*
X663360Y477360D01*
X642960Y477360D01*
X638880Y473280D01*
X638880Y465797D01*
X638075Y464992D01*
D42*
X638075Y440608D02*
X638075Y436875D01*
D43*
X620800Y487500D02*
X620800Y499900D01*
X621200Y500300D01*
X620800Y487500D02*
X612300Y487500D01*
X604200Y479400D01*
D41*
X604200Y479400D03*
X626280Y424320D03*
D43*
X638880Y424320D01*
X638880Y439803D01*
X638075Y440608D01*
D42*
X718000Y465067D02*
X718000Y470400D01*
X718000Y465067D02*
X718075Y464992D01*
X740200Y502100D02*
X742050Y503950D01*
X733000Y485500D02*
X732800Y485300D01*
D43*
X740200Y519150D02*
X742050Y521000D01*
X740200Y519150D02*
X740200Y502100D01*
X732800Y494700D01*
X732800Y485300D01*
X732800Y480220D01*
X729940Y477360D01*
X724560Y477360D01*
X718000Y470800D01*
X718000Y470400D01*
D42*
X689100Y487500D02*
X688600Y488000D01*
X689100Y487500D02*
X687100Y487500D01*
D43*
X689100Y487500D02*
X689100Y500400D01*
X688600Y500900D01*
X718075Y440608D02*
X704307Y426840D01*
X693240Y426840D01*
X685800Y434280D01*
X685800Y477360D01*
X689100Y480660D01*
X689100Y487500D01*
D42*
X689400Y587650D02*
X689400Y590850D01*
D43*
X703750Y604800D02*
X703750Y605200D01*
X703750Y604800D02*
X703750Y602000D01*
X689400Y587650D01*
D49*
X686300Y604800D02*
X685800Y605300D01*
X686300Y604800D02*
X703750Y604800D01*
D42*
X702100Y487500D02*
X702500Y487100D01*
X688800Y523600D02*
X688800Y524200D01*
D41*
X787600Y432800D03*
X788800Y348440D03*
D43*
X688800Y538250D02*
X703750Y553200D01*
X688800Y538250D02*
X688800Y524200D01*
X717600Y487500D02*
X719800Y485300D01*
X717600Y487500D02*
X702100Y487500D01*
X702400Y510000D02*
X717600Y510000D01*
X717600Y487500D01*
X712280Y477320D02*
X702100Y487500D01*
X712280Y477320D02*
X698800Y463840D01*
X698800Y461550D01*
X700360Y462800D01*
X710280Y452880D01*
X726600Y452880D01*
X738240Y452880D01*
X788800Y348440D02*
X816460Y348440D01*
D44*
X727600Y453880D02*
X727600Y464992D01*
X727600Y453880D02*
X726600Y452880D01*
X702400Y510000D02*
X688800Y523600D01*
X816460Y348440D02*
X834760Y348440D01*
X864960Y318240D01*
X864960Y311660D01*
X864140Y310840D01*
D49*
X787600Y432800D02*
X760600Y432800D01*
X740520Y452880D01*
X738240Y452880D01*
D41*
X778800Y444800D03*
X788800Y335840D03*
D43*
X788800Y333040D01*
D44*
X790160Y333040D01*
X790200Y331200D01*
X802800Y318600D01*
X802800Y309100D01*
X803100Y308800D01*
D49*
X775180Y441180D02*
X778800Y444800D01*
X775180Y441180D02*
X760937Y441180D01*
X737125Y464992D01*
D47*
X26600Y241600D02*
X26600Y216000D01*
X26600Y241600D02*
X26600Y267200D01*
X26600Y292800D01*
X26600Y216000D02*
X25600Y215000D01*
X25600Y188400D01*
X72000Y135900D02*
X98300Y109600D01*
X72000Y135900D02*
X72000Y164800D01*
X48400Y188400D01*
X25600Y188400D01*
X546000Y173300D02*
X546000Y278400D01*
X546000Y173300D02*
X559300Y160000D01*
X604300Y43200D02*
X604300Y20000D01*
X604300Y43200D02*
X604300Y66400D01*
X604300Y89800D01*
X604300Y115000D01*
X559300Y160000D01*
D49*
X759600Y598600D02*
X752864Y605336D01*
X752864Y622683D01*
X670990Y622300D02*
X610200Y622300D01*
X745199Y630348D02*
X752864Y622683D01*
X679038Y630348D02*
X670990Y622300D01*
X679038Y630348D02*
X745199Y630348D01*
X748800Y508600D02*
X759600Y497800D01*
X748800Y508600D02*
X748800Y512790D01*
X750348Y514338D01*
X750348Y527663D01*
X748800Y529211D01*
X748800Y621000D01*
X747500Y622300D01*
X685800Y622300D01*
M02*
